<?xml version="1.0" encoding="UTF-8"?>
<svg version="1.1" viewBox="138 400 1400 800" width="1400" height="800" xmlns="http://www.w3.org/2000/svg">

<path transform="translate(646,480)" d="m0 0h216l7 1 1-1h173v38l-16 34-11 23 2 6 18 40 7 16v14l79-2 106-4 159-8 1 9 10-7 9-3 36-3h15l11 4 9 6 8 9 4 8 3 13v55l-3 1 3 13v40l-3 13-5 10-8 9-11 7-7 2h-4v9l-5 10-8 7-29 17-12 6-6 1-51 1-9 10-34 34-8 7-15 13-16 13-20 15-5 4h-2l4 5 11 9 5 6-10 5-44 18-33 14-8 8-8 7-10 10-8 7-8 8-8 7-11 11-3 1v-36l1-6-16 6-27 10-36 11-22 6-38 8-39 6-42 4h-85l-49-5-37-6-36-8-33-9-36-12-30-12 1 14v29l-4-2-10-10-8-7-11-11-8-7-10-10-8-7-6-5-13-6-41-17-31-13-3-3 13-12 7-6-5-5-12-9-14-11-13-11-8-7-20-18-30-30-4-5-27-1-12-3-19-12-16-10-7-6-4-8-1-3v-7h-67l-1-1v-193l50 3 44 3 106 6 89 4 81 3 11 2 10 5 5-2 9-3h18v-12l19-85 14-63z" fill="#1A1A1A"/>
<path transform="translate(463,865)" d="m0 0 74 1 126 2 118 2h121l117-2 144-2h55l-1 7-14 48-9 31 1 4 5 4v2l4 2 10 9v1h-747l6-7 10-9 4-3-2-10-21-70-2-9z" fill="#C80431"/>
<path transform="translate(661,988)" d="m0 0h361l82 1 1 16-12 6-31 12-36 12-38 10-40 8-28 4-32 3-21 1h-49l-32-2-28-3-26-4-35-7-27-7-33-10-22-8-27-11-9-4v-11l1-5z" fill="#ECA10A"/>
<path transform="translate(283,825)" d="m0 0h1144l-5 4-27 16h-1081l-26-16z" fill="#E68C15"/>
<path transform="translate(1163,866)" d="m0 0h55l-1 7-14 48-9 31 1 4 5 4v2l4 2 10 9v1h-380l4-2 214-1-1-2h73l-102-1-5-1-2 1h-13l-1-2 9-2 1-2h-2l1-8 2-1h9l2 1v2h2v4l3 1v2h3l2-4-1-10 1-8 1 3 4 2 2 13 9 3 4-2h7l1-11h-2l-6-22v-4l4-4 1-3v-23l-3-8-7-3-11-2h-24l-2-1-1 8-1 4-2-6 1-6 5-2h24l-2-2 4-2 111-2h42l1 4-4 16 4-13v-8h-18l-29 1h-58l-1-1h-20l-5 1-9-1h-27l-7 1h-48l-59 1h-128v-1l118-1 117-2z" fill="#E5022F"/>
<path transform="translate(490,871)" d="m0 0h27l136 2 8 1h20l4 2h2v-2h2l1 5-3 1 2 2 9-1 1-7h5v3l2 2-2 1 12 1 2 1 1 36v41l-4 2h-16l-3 1v-5l3-1-4-4v-6h-2l-1 7h-3l2-4 6-33h1v36h19v-69l-27 1-5 29-2 3-5-27v-6h-28v76l2 2 5-1v2h5l3-2h5v-6h4l1 3-1 2h3v8l-2 1h-183l1-2h2l2-5 3-3h2l2-4 5-5-1-7-9-34-8-28z" fill="#A40432"/>
<path transform="translate(773,504)" d="m0 0h83l13 4 7 5 5 10v55l-3 7-4 5-3 2 1 8 13 40v10h-44l-8-26-7-24v-3h-7v53h-46z" fill="#E37122"/>
<path transform="translate(898,504)" d="m0 0h46l1 51 13-29 10-22h46v10l-9 20-8 16-11 23 1 7 13 29 14 32v10l-46-1-7-15-12-28-4-9-1 52h-46z" fill="#E47221"/>
<path transform="translate(670,504)" d="m0 0h63l8 35 10 47 8 35 4 17v12h-45l-4-20v-3h-26l-2 13-2 10h-45v-11l8-35 9-42 9-40 4-17z" fill="#E37221"/>
<path transform="translate(382,665)" d="m0 0 27 1 16 1 1 1 8 55 1 10 9-63 1-2h14l22 1 7 1v130h-30l-1-66-4 25-3 21-3 20h-23l-1-1-7-47-3-21-1 69h-30z" fill="#F4EBDE"/>
<path transform="translate(210,655)" d="m0 0h12l45 3 10 5 6 9 1 2v112l-6 10-6 4h-62z" fill="#F4EBDE"/>
<path transform="translate(283,825)" d="m0 0h816l14 1v1h-24l-162 3-7 1h-13l-9 2-86 2-62 1-9 1-5-1h-11l-13 1h-37l-69 2h-29l41 1v1l-43 1h-51v-2h-39l-5 1h-1l-4 1-1 1h-34l-15 1-111 1-26-16z" fill="#E37121"/>
<path transform="translate(1142,671)" d="m0 0h30l-1 129h-34l-7-32-4-20-1 52h-30v-127l14-1h20l2 6 10 48z" fill="#F4EBDE"/>
<path transform="translate(296,660)" d="m0 0 31 2 1 1 1 113 9 1 1-114h13l18 1 1 56v60l-2 9-5 7-6 4h-49l-6-4-5-6-2-7z" fill="#F4ECDE"/>
<path transform="translate(1445,656)" d="m0 0h10l8 4 5 7 2 6v34l-10 1h-22l-1-25-4-1-5 1v23l5 2 28 19 6 7 3 8v40l-4 10-5 5-4 3h-49l-8-6-4-8-1-4v-37l32-1 1 31h9v-27l-24-16-11-8-4-5-3-8v-32l3-10 6-7 9-4z" fill="#F4EBDE"/>
<path transform="translate(979,675)" d="m0 0h17l7 3 5 4 4 9v45l-5 10-4 4 9 37 3 13h-31l-10-43v-5h-5v48h-32v-124z" fill="#F4EBDE"/>
<path transform="translate(831,676)" d="m0 0h34l10 3 5 5 4 7v47l-5 8-3 3 1 8 10 41v2h-31l-9-39-2-8-4-1v48h-32v-123z" fill="#F4EBDE"/>
<path transform="translate(1288,665)" d="m0 0h17l8 49 5 35 7 45v6h-31l-3-21h-17l-3 21h-31l2-18 12-74 6-39 1-2z" fill="#F4ECDE"/>
<path transform="translate(601,673)" d="m0 0 35 1 9 2 7 5 4 7v32h-22l-9-1-1-23h-10v18l4 4 24 15 8 6 5 6 1 2v40l-4 7-8 6h-49l-8-5-4-7-1-3v-35h26l5 1 1 26 1 1 9 1v-24l-15-10-16-10-8-7-3-7v-33l4-8 6-5z" fill="#F4ECDE"/>
<path transform="translate(500,670)" d="m0 0 42 1 17 1 8 4 6 7 2 7v46l-3 8-7 6-5 2h-28v48h-32z" fill="#F4ECDE"/>
<path transform="translate(836,577)" d="m0 0 8 2 7-1 2-1h7l9 2 1 3-2 3v7h2l5 17 10 31v10h-44l-8-26-7-24v-3h-7v53h-46v-53l1-16 1-1 56-1z" fill="#DE6223"/>
<path transform="translate(661,988)" d="m0 0h361l82 1v12h-525v-7l1-5z" fill="#E58C15"/>
<path transform="translate(1400,826)" d="m0 0h13l3 2-1 5-20 12-744-1v-1l235-2-27-1v-1l39-1h23l51-2h20l44-1 98-1 4-1h38l5-1 53-2 3-1h7l4 1 14-1 52-1z" fill="#ECA10A"/>
<path transform="translate(1077,673)" d="m0 0h9v22l-27 1-3 2v25l28 1v21l-7 1h-22v33h31v21h-63v-82l1-43z" fill="#F4ECDE"/>
<path transform="translate(738,676)" d="m0 0h61l1 1v20l-1 1h-29v27h27l1 1v20l-1 1h-27l1 32h28l1 1v20h-63v-123z" fill="#F4EBDE"/>
<path transform="translate(1363,661)" d="m0 0h1v116h28v23h-60v-136l1-1z" fill="#F3EBDD"/>
<path transform="translate(1245,667)" d="m0 0 4 1v22l-21 1v109h-31v-108l-19 1-1-1v-21l1-1z" fill="#F4EDE0"/>
<path transform="translate(660,675)" d="m0 0h40l32 1v21h-20v103h-32v-103l-19-1-1-1z" fill="#F3EBDD"/>
<path transform="translate(750,603)" d="m0 0 1 2 4-1 7 31 1 3v12h-45l-4-20v-3h-26l-2 13-2 10h-45v-11l8-35 3 3h24l3-1 26-1h20l4-1z" fill="#D75627"/>
<path transform="translate(650,883)" d="m0 0h28l5 28 1 2 5-29 1-1h27v69h-19l-1-31-5 28-1 3h-15l-6-32-1 32h-19z" fill="#F3E9DC"/>
<path transform="translate(975,575)" d="m0 0h10l13 30 11 24 4 9-1 4h-43l-3-5-13-30-8-18-1-1-1 12-2-3-2 3-6 1v-2l-31 1-3-1v-20l4-2h36l2-1z" fill="#DE6223"/>
<path transform="translate(949,825)" d="m0 0h150l14 1v1h-24l-162 3-7 1h-13l-9 2-86 2-62 1-9 1-5-1h-11l-13 1h-37l-69 2h-29l41 1v1l-43 1h-51v-2h-39l-5 1h-1l-4 1-1 1h-34l-15 1-111 1-5-3 1-3h15v1l-10 1h12l9-1v-1l129-2 34-1 27-2h25l106-2 55-2 76-2 18-1 32-1z" fill="#E57F1D"/>
<path transform="translate(1163,866)" d="m0 0h55l-1 7-14 48-9 31 1 4 5 4v2l4 2 10 9v1h-380l4-2 214-1-1-2h73l69-1v-2l-5-2-7-9-7-6 1-10 3-6 4-15 4-18 4-11 2-8 1-3v-8h-18l-29 1h-58l-1-1h-20l-5 1-9-1h-27l-7 1h-48l-59 1h-128v-1l118-1 117-2z" fill="#A40433"/>
<path transform="translate(773,504)" d="m0 0h83l13 4 7 5 4 7v28h-1l-1-8h-40l-1 1-1 11h-1l-1-14-1-1-14-1v15h-1l-2-8-3-2h4v-2l-19 1v1h-14l-3 2h-3l-1-2-2 1-1 7h-1z" fill="#E6801D"/>
<path transform="translate(733,883)" d="m0 0h29l6 3 3 4v55l-5 6-3 1h-31l-6-4-2-4v-53l3-5z" fill="#F3EADC"/>
<path transform="translate(967,883)" d="m0 0h28l6 3 3 4v55l-5 6-2 1h-32l-6-4-2-5v-51l3-5 3-3z" fill="#F3EADC"/>
<path transform="translate(593,883)" d="m0 0h26l6 4 3 6v12l-1 1h-17l-1-1-1-9h-5v6l6 8 4 5 2 1 1-5h18l1 2-7 16 1 6 9 10 4 5v2h-18l-5-4-6 4h-25l-7-6-1-3v-23l6-7 4-1-6-8v-14l4-5z" fill="#F3E9DB"/>
<path transform="translate(1012,883)" d="m0 0h38l6 4 3 6v23l-3 6-3 1 7 26v3h-19l-5-18-2-9h-2l-1 27h-19l-1-1v-67z" fill="#F3EADC"/>
<path transform="translate(778,883)" d="m0 0h38l6 3 3 4v29l-3 4h-2l7 26v3h-19l-6-21-1-6h-2v26l-1 1h-20z" fill="#F3EADC"/>
<path transform="translate(944,587)" d="m0 0 3 4 12 27 8 19 2 4h45v10l-46-1-7-15-12-28-4-9-1 52h-46l1-51h34v2l6-2 2-3 1 1 1-9z" fill="#D75527"/>
<path transform="translate(670,504)" d="m0 0h63l8 35v6l-3-4-1 1h-28l-3 2-6 1-1-1-23-2-8 9h-2l-1-8h-2l-2 2 1-9 7-31z" fill="#E57F1D"/>
<path transform="translate(913,883)" d="m0 0h28l6 3 3 4 1 3v19l-1 1h-20v-18h-6v44l6 1v-19l1-1h19l1 1v21l-3 7-5 3h-32l-6-5-2-10v-44l3-6 4-3z" fill="#F3E9DC"/>
<path transform="translate(1066,883)" d="m0 0h38l6 3 3 5v27l-3 5-5 3h-19v26h-20z" fill="#F3EADC"/>
<path transform="translate(1233,873)" d="m0 0h63l-6 7-11 11-8 7-11 10-11 9-18 14-14 10-4 2 1-8 9-31 7-23z" fill="#ECA00A"/>
<path transform="translate(701,558)" d="m0 0h1l6 33v5h2l-1-5v-10l2-1 5 2h17l7-2 4 1h4l1 6h2l3 12v5h-4l-23 1-7 1h-17l-26 1-5 1h-23l-1-3v-7l3-13 13-2 25 1 1 2 3-4v11l-1 3h2l1-10 5-27z" fill="#DD6224"/>
<path transform="translate(464,867)" d="m0 0h35l12 1v1l-20 1-2 1 2 12 2 5 2 9 3 12 2 4 4 18 2 6 1 12-5 5-7 8-3 3-2 3 4 2 2-1h44l-3 3-41 1-25-1 1-4 11-10 4-3-2-10-19-64z" fill="#E50230"/>
<path transform="translate(214,750)" d="m0 0 21 1 3 1v28h13l5-3 1-24 21 1 2 1v29l-6 9-5 3-39 1h-16z" fill="#E5C8B4"/>
<path transform="translate(389,873)" d="m0 0h59l3 9 6 19 10 34-1 3-5-2-17-13-17-14-14-12-7-7-8-7-9-9z" fill="#E68C15"/>
<path transform="translate(1251,754)" d="m0 0h19l2 1v5h21v-5h22l3 25 2 12v4h-22l-3-22h-25l-2 21-4 2h-19l-1-4 6-36z" fill="#E5C8B4"/>
<path transform="translate(773,597)" d="m0 0h1v5h3v2l37-1 4 1v-7h1v53h-46z" fill="#D75527"/>
<path transform="translate(1399,756)" d="m0 0h24l1 20 2 3 9 1 5-2 1-2 1-20h23v29l-2 4h-2l-2 4-5 3-41 1-7-3-5-6-2-6z" fill="#E5C8B4"/>
<path transform="translate(586,755)" d="m0 0h23l1 22 3 5h12l3-3 1-24h23v29l-3 7-5 4-3 1-42 1-8-4-4-5-1-3z" fill="#E5C8B4"/>
<path transform="translate(300,755)" d="m0 0h20l3 1 1 19 3 5 3 1h7l4-2 1-3 1-20 23 1v27l-3 6-5 5-3 1-42 1-6-3-6-7-1-4z" fill="#E5C8B4"/>
<path transform="translate(833,883)" d="m0 0h39v12h-19v15h17v12l-16 1-1 17h12l7 1v11h-39z" fill="#F3EADD"/>
<path transform="translate(1117,989)" d="m0 0h80l-3 3-29 13-8 4-12 12-1 2h-2l-2 4-13 13-7 8-3 1z" fill="#A40332"/>
<path transform="translate(488,989)" d="m0 0h79v23l-1 36-4-2-16-17-6-6v-2h-2l-7-8-7-6-25-11-11-5z" fill="#A40433"/>
<path transform="translate(993,596)" d="m0 0 3 4 16 36 1 5-1 1h-43l-3-5-13-30 1-4 3 5-2-8h4l5-1h8l2 1h9l4-1v-2h3l2 3v3h2l-2-6z" fill="#D75527"/>
<path transform="translate(968,504)" d="m0 0h46v10l-9 20-8 16-12 25h-2v-6l13-27-1-3-4-1-7-2h-17-2-5l-1 2h-4l-1-3z" fill="#E57F1D"/>
<path transform="translate(865,597)" d="m0 0 4 5v-5h2l14 43-2 2h-41l-3-8-6-19 1-4h1v-6l-3-5 1-2 4 2v2h25v2h2v-6z" fill="#D75627"/>
<path transform="translate(661,988)" d="m0 0h27l29 7 23 4v1l-63 1h-98v-7l1-5z" fill="#D75528"/>
<path transform="translate(997,988)" d="m0 0h25l82 1v12h-93l-67-1v-1l19-3z" fill="#D75527"/>
<path transform="translate(898,504)" d="m0 0h46v47h-1l-1-14h-32l-4-1-2 2-4-1-1 2-1-23z" fill="#E67F1D"/>
<path transform="translate(1028,753)" d="m0 0h15l8 1v29h30v13l-53 1-1-1v-42z" fill="#E5C8B4"/>
<path transform="translate(773,504)" d="m0 0h83l13 4 5 4-1 2-2-2h-4l-4-2-2 1h-7l-4-2v2h-24v2h-5l-3-4 8-1-5-1-6 1 2 3-11 10-11 9-4 2v2l-9 7-1 2h-3l-1-2-2 1-1 7h-1z" fill="#E28019"/>
<path transform="translate(741,753)" d="m0 0h24v31h30v12l-39 1h-15z" fill="#E5C8B4"/>
<path transform="translate(1336,755)" d="m0 0h12l12 1v25h27v15l-51 1z" fill="#E5C8B4"/>
<path transform="translate(670,504)" d="m0 0h63l4 20h-2l-2-8-2-3-2 5h-2l-1-7-1-1-5 1h-18l-3 1-8 10-9 11-6 7-3 5-5 6h-2l-1-8h-2l-2 2 1-9 7-31z" fill="#E38318"/>
<path transform="translate(1132,754)" d="m0 0h10l3 12 1-11 2-1h16l3 2v40h-26l-3-12-6-28z" fill="#E5C8B4"/>
<path transform="translate(941,753)" d="m0 0h24v43l-5 1h-19z" fill="#E5C8B4"/>
<path transform="translate(813,753)" d="m0 0h24v43l-5 1h-19z" fill="#E5C8B4"/>
<path transform="translate(242,681)" d="m0 0 10 1 1 2v90l-1 2h-10z" fill="#1A1A1A"/>
<path transform="translate(687,619)" d="m0 0h27l2 5 3 17h44v9h-45l-4-20v-3h-26l-2 13-2 10h-45v-9h44z" fill="#F3E9DD"/>
<path transform="translate(684,754)" d="m0 0h24v42h-24z" fill="#E5C8B4"/>
<path transform="translate(505,756)" d="m0 0h14l9 1v39l-6 1h-18v-40z" fill="#E5C8B4"/>
<path transform="translate(1201,754)" d="m0 0 23 1v41h-23z" fill="#E5C8B4"/>
<path transform="translate(1099,754)" d="m0 0h22v42l-3 1h-19z" fill="#E5C8B4"/>
<path transform="translate(850,753)" d="m0 0h21l5 18 2 10 2 9v5l-1 1h-19l-4-14-6-27z" fill="#E5C8B4"/>
<path transform="translate(979,753)" d="m0 0h19l3 6 6 26 2 11h-21l-3-9-7-33z" fill="#E5C8B4"/>
<path transform="translate(386,757)" d="m0 0h22v40h-21l-1-1z" fill="#E5C8B4"/>
<path transform="translate(422,757)" d="m0 0h12l1 4 2-4h11v8l-4 28-1 3h-16l-5-33z" fill="#E5C8B4"/>
<path transform="translate(464,757)" d="m0 0h19v39h-20v-38z" fill="#E5C8B4"/>
<path transform="translate(475,670)" d="m0 0h13v130h-29l1-4v3h22v-2h3v-37l-4-10v-76h-3z" fill="#F9F4F0"/>
<path transform="translate(779,510)" d="m0 0h38l-5 5-13 12-6 5h-2v2l-10 8-2-1z" fill="#EDA20A"/>
<path transform="translate(1163,671)" d="m0 0h9l-1 129h-26v-1l22-1 1-3v-38h1l1-5-3-1-2-4v-75z" fill="#FDFDFD"/>
<path transform="translate(675,508)" d="m0 0h26l-2 4-8 10-9 11-6 7-3 5-4 5h-2l1-11 5-27z" fill="#ECA10A"/>
<path transform="translate(361,665)" d="m0 0h9l1 55v60l-1 6h-2l-1-2v-18l-1-11-1-7v-74l-1-6-2-1z" fill="#FBF8F6"/>
<path transform="translate(944,587)" d="m0 0 3 4 12 27 8 19 2 4h45v10l-46-1-7-15-18-42v-5z" fill="#FDFCFC"/>
<path transform="translate(903,507)" d="m0 0h31l4 2-12 10-14 11-8 6h-1l-1-12v-16z" fill="#ECA519"/>
<path transform="translate(819,588)" d="m0 0h7l6 19 6 21 4 13h43v9h-44l-8-26-7-24v-3h-7z" fill="#FDFDFD"/>
<path transform="translate(1119,1014)" d="m0 0 22 2 3-1 3 1-1 4-2 3h-2l-2 4-13 13-7 8-3 1 1-34z" fill="#C60332"/>
<path transform="translate(1067,884)" d="m0 0h40l5 5v11l-4-5-5 1-1 3-8-4h-8l-3 2v-2l-2-1v5h-3l-1-2h-8l-2-4z" fill="#FDFCFB"/>
<path transform="translate(819,536)" d="m0 0h14l2 2v25l-2 2h-14z" fill="#1A1A1A"/>
<path transform="translate(532,693)" d="m0 0 10 1 1 1v34l-1 1h-10z" fill="#1A1A1A"/>
<path transform="translate(281,677)" d="m0 0 3 1v108l-1 2h-2v-29l1-3-2-7v-70z" fill="#FEFEFE"/>
<path transform="translate(969,697)" d="m0 0h10l1 1v32l-1 1h-10z" fill="#1A1A1A"/>
<path transform="translate(773,641)" d="m0 0 46 1v8h-46z" fill="#FBF9F6"/>
<path transform="translate(841,698)" d="m0 0h10l1 1v31l-2 2h-8l-1-1z" fill="#1A1A1A"/>
<path transform="translate(899,641)" d="m0 0 45 1v8h-46v-8z" fill="#FBF9F7"/>
<path transform="translate(580,946)" d="m0 0 4 2 4 3h25l7-4 6 5-2 3-4 1-5 4h-25l-5-2-5-5z" fill="#C70331"/>
<path transform="translate(1012,884)" d="m0 0h37v2l4 1 2 1-2 8-5-1v-4l-7 1v4l-1-2-11 1-2-2 1-2-15-1-1-1z" fill="#FDFDFD"/>
<path transform="translate(697,916)" d="m0 0h1v36h19v-2h2v9l-4 2h-16l-3 1v-5l3-1-4-4v-6h-2l-1 7h-3l2-4z" fill="#A40332"/>
<path transform="translate(924,895)" d="m0 0h6l1 18 6 1-2 6-4 1-1 19h-6l-1-1z" fill="#C90631"/>
<path transform="translate(978,895)" d="m0 0h6v45l-3 1-4-2v-43z" fill="#CB0F30"/>
<path transform="translate(745,895)" d="m0 0h5l1 1v44h-6l-1-1v-43z" fill="#C80332"/>
<path transform="translate(718,643)" d="m0 0h44v7h-44z" fill="#FDFDFD"/>
<path transform="translate(640,643)" d="m0 0h44v7h-44z" fill="#FDFDFD"/>
<path transform="translate(1032,925)" d="m0 0h2l4 13 3 14h19l1-3v11l-2 1h-6l-4 2-10-4-2-13-3-2-2 1z" fill="#C70431"/>
<path transform="translate(701,558)" d="m0 0h1l6 33v5h-14l1-10 5-27z" fill="#1A1A1A"/>
<path transform="translate(1282,711)" d="m0 0 2 3 5 41-4 1h-8v-8z" fill="#1A1A1A"/>
<path transform="translate(491,869)" d="m0 0h5l1 2h-7l6 23 8 28 6 23-1 5-7 8-5 4-2 4-2 1 47 1v1l-44 1-5 1-2-4 4-5 6-5 6-8h2l-3-16-2-5-3-15-3-6-3-12-2-9-3-12 1-4z" fill="#CA0332"/>
<path transform="translate(825,505)" d="m0 0h36l10 4 3 3-1 2-2-2h-4l-4-2-2 1h-7l-4-2v2h-24v2h-5l-3-4 8-1z" fill="#E58C15"/>
<path transform="translate(944,587)" d="m0 0 3 4 12 27 8 19 2 4h45v2h-47l-2 1-16-37-6-14v-5z" fill="#F0E1D3"/>
<path transform="translate(1013,505)" d="m0 0h1v9l-9 20-8 16-12 25h-2v-6l16-33 13-28z" fill="#F0E4D5"/>
<path transform="translate(572,685)" d="m0 0 2 1 1 4v46l-2 6-3-1v-51z" fill="#F9F3EF"/>
<path transform="translate(819,588)" d="m0 0h7l6 19 6 21 4 13h43v9h-1v-7l-45 1-13-44v-3h-7z" fill="#EEDDCE"/>
<path transform="translate(1463,664)" d="m0 0 4 1 2 5v36h-7z" fill="#FDFCFC"/>
<path transform="translate(898,504)" d="m0 0h46v1h-10v2l-31 1v16l1 11 2 1-2 2-4-1-1 2-1-23z" fill="#DF711E"/>
<path transform="translate(1112,919)" d="m0 0 1 3-3 7-4 4-6 2-13-1v18h-1v-26l19-1 5-3z" fill="#CA0332"/>
<path transform="translate(1233,873)" d="m0 0h3l-3 12-16 54-4 4 1-8 9-31 7-23z" fill="#D75527"/>
<path transform="translate(445,873)" d="m0 0 4 1 9 31 9 30-1 3h-2l-7-22-12-41z" fill="#D75527"/>
<path transform="translate(668,509)" d="m0 0 4 1-1 4v2h2l-2 12-3 16v7h-2l-1-8h-2l-2 2 1-9z" fill="#E5801C"/>
<path transform="translate(1175,869)" d="m0 0h18l1 1v8l-2 5-2 8-2 2 1-6 3-12v-3h-95l1-2h48z" fill="#CA0332"/>
<path transform="translate(466,878)" d="m0 0 3 4 2-1v8l2 5 3 12 3 6v8l3-1v7l5 18 3 8v4l-9 7-5 5-4 1 5-5 10-9-2-10-19-64z" fill="#BD0332"/>
<path transform="translate(603,895)" d="m0 0h5l1 1 1 9 14 1 4 3h-9l-3 4-1 3-4-2-8-10-1-2v-6z" fill="#C20531"/>
<path transform="translate(770,888)" d="m0 0 2 1 1 45-2 16-1 2 2 1-6 5-4 1-6-2-1-4 11-3 4-5z" fill="#A40432"/>
<path transform="translate(971,884)" d="m0 0h22l-1 4-4 1-2-1v6l-1-2h-10l-3-2 1-2-2-1v4h-6l1-3-1-2z" fill="#FDFDFD"/>
<path transform="translate(654,689)" d="m0 0 2 2v28h-8l2-1v-21z" fill="#FDFDFD"/>
<path transform="translate(675,877)" d="m0 0 6 2 2 5v8l-1 2h2l1-3 2 2-1 14-2 9h-1l-4-22 1-10-5-3-1-2z" fill="#AF0632"/>
<path transform="translate(701,550)" d="m0 0h1l8 41v5h-2l-7-37-7 37h-2l2-14 6-31z" fill="#ECDACA"/>
<path transform="translate(1168,757)" d="m0 0 3 1v42h-26v-1l22-1 1-3z" fill="#FEFEFE"/>
<path transform="translate(1461,730)" d="m0 0 4 1 4 7v24l-2-1-1-7-3-4v-10l-3-6z" fill="#FCFBFA"/>
<path transform="translate(1011,879)" d="m0 0h26l15 3 5 4-1 2-6-4h-39l-1-3z" fill="#CA0431"/>
<path transform="translate(669,916)" d="m0 0 2 4 5 27-1 5h-5l-1-1z" fill="#B70332"/>
<path transform="translate(1245,667)" d="m0 0 4 1v22h-17v-1l9-1 3-1v-18h-2l-1 5-3-4 2-2z" fill="#F9F4F0"/>
<path transform="translate(697,916)" d="m0 0h1l1 37-4-1v-6h-2l-1 7h-3l2-4z" fill="#A60732"/>
<path transform="translate(1086,895)" d="m0 0h6l1 1v17l-1 1h-6z" fill="#C40332"/>
<path transform="translate(723,677)" d="m0 0h9v19h-12l4-2 1-2v-14z" fill="#FEFEFE"/>
<path transform="translate(819,528)" d="m0 0h15l1 1v8l-16-1z" fill="#F2E8DB"/>
<path transform="translate(1032,895)" d="m0 0h6v18l-1 1h-5l-1-1v-15z" fill="#D0142F"/>
<path transform="translate(774,512)" d="m0 0h4l1 24 2 7h-3l-1-2-3 1z" fill="#E67F1D"/>
<path transform="translate(1031,928)" d="m0 0h1l1 27 1 4-3 4h-3l-3-3v-4h-2v-2l-11-1v-1h19z" fill="#D0202E"/>
<path transform="translate(1469,742)" d="m0 0h1v40l-3 9-4-2v-3l2-2 2-21 1-1z" fill="#F4E8E0"/>
<path transform="translate(968,504)" d="m0 0h46v1l-12 2h-12l-15-1v3l-8 1z" fill="#E0781C"/>
<path transform="translate(880,570)" d="m0 0h1v8l-3 7-4 5-3 2h-3l-1-7 10-8z" fill="#F0E3D4"/>
<path transform="translate(463,865)" d="m0 0 74 1v1l-47 1-26-1 2 6v5l-2-3-2-9z" fill="#B30332"/>
<path transform="translate(799,895)" d="m0 0h6v18l-5 1-1-1z" fill="#C20531"/>
<path transform="translate(580,946)" d="m0 0 4 2 4 3 20 1v1l-13 1-1 4h-7l-6-3-1-2z" fill="#DC142E"/>
<path transform="translate(1032,925)" d="m0 0h2l4 13 3 14 2 1h-4l-3-8h-3-1z" fill="#C50931"/>
<path transform="translate(901,507)" d="m0 0h1l2 28 2 1-2 2-4-1-1 2-1-26z" fill="#E5811C"/>
<path transform="translate(931,913)" d="m0 0h20v6l-1 1h-15l2-6h-6z" fill="#A40433"/>
<path transform="translate(795,677)" d="m0 0h5v20h-9l1-2 3 1z" fill="#F9F3EF"/>
<path transform="translate(1390,777)" d="m0 0h2v23h-24v-1l17-1 3-1v-16z" fill="#FBF8F5"/>
<path transform="translate(810,952)" d="m0 0h15l2 4-1 4h-7l-4-2v-3l-6-1z" fill="#A40433"/>
<path transform="translate(599,924)" d="m0 0 4 2 4 5-1 5-2 4h-5z" fill="#C60831"/>
<path transform="translate(653,752)" d="m0 0 3 1v32h-2l-1-2z" fill="#FDFDFD"/>
<path transform="translate(853,895)" d="m0 0h19v7l-9 1-4-2v-3h4v-2h-9l-1 4z" fill="#A40433"/>
<path transform="translate(960,629)" d="m0 0 2 1 1 3 3 1 3 7h45v2h-47l-2 1-5-12z" fill="#F3E9DC"/>
<path transform="translate(950,945)" d="m0 0 1 4-2 6-8 4-4-1-2-3 3-3 9-3z" fill="#A40332"/>
<path transform="translate(651,953)" d="m0 0h11l6 2-1 3-5 1h-11z" fill="#E60230"/>
<path transform="translate(725,886)" d="m0 0 2 1-2 4-1 54-2-2v-44l-2-5v-4h3z" fill="#A40433"/>
<path transform="translate(1e3 945)" d="m0 0h1v7l-4 5-9 1-2-2 1-2-2-1 11-3z" fill="#A40432"/>
<path transform="translate(283,757)" d="m0 0h1v29l-1 2h-2v-29z" fill="#FCFBFA"/>
<path transform="translate(819,588)" d="m0 0h7l4 13v2h-2l-2-3v-3h-7z" fill="#F1E6D8"/>
<path transform="translate(1163,674)" d="m0 0h1l1 75-1 3h-2z" fill="#FEFEFE"/>
<path transform="translate(952,610)" d="m0 0 4 2 9 20v2l-3-1-2-3-2-2-6-14z" fill="#F0E2D3"/>
<path transform="translate(1112,919)" d="m0 0 1 3-3 7-5 3h-6l3-4-15-1-1 2v-3l19-1 5-3z" fill="#A40432"/>
<path transform="translate(837,632)" d="m0 0 3 2 2 7h43v9h-1v-7l-45 1-2-6z" fill="#F1E6D8"/>
<path transform="translate(934,505)" d="m0 0h10v46h-1l-1-41-8-2z" fill="#E68D15"/>
<path transform="translate(1043,952)" d="m0 0h16v7h-8v-2l-3-2-7-1z" fill="#A40433"/>
<path transform="translate(854,922)" d="m0 0h17l-1 7h-7l-3-2v-3h-5l-2 1z" fill="#A40433"/>
<path transform="translate(1075,780)" d="m0 0h10v20h-24v-1h20l1-11 2-7h-9z" fill="#FEFEFE"/>
<path transform="translate(862,952)" d="m0 0h10v7l-6 1-4-1v-3l-2-1z" fill="#A40433"/>
<path transform="translate(1066,952)" d="m0 0h20v5l-4 2-1-3h-3l-1 3-1-3h-2l-1-2-7-1z" fill="#CF182F"/>
<path transform="translate(1081,674)" d="m0 0h4v20h-5l1-5z" fill="#FEFEFE"/>
<path transform="translate(783,511)" d="m0 0h29v2l-13 1h-16z" fill="#E5C8B4"/>
<path transform="translate(957,948)" d="m0 0 5 1 3 3 3 2h5l-3 3h-9l-4-5z" fill="#E4062F"/>
<path transform="translate(470,970)" d="m0 0 1 2h28l1 2h-33z" fill="#C70332"/>
<path transform="translate(1058,891)" d="m0 0h2v26l-1 8h-2l-2 5-2-3v-4l4-4 1-3z" fill="#C90831"/>
<path transform="translate(553,1030)" d="m0 0 4 2 1 3 4 2 3 1v8l-7-6-5-7z" fill="#CA0332"/>
<path transform="translate(781,953)" d="m0 0h8l1 3-2 3h-10l2-5z" fill="#E60230"/>
<path transform="translate(1183,907)" d="m0 0h1v8l-4 13-3 9-2 2 2-10z" fill="#CA0332"/>
<path transform="translate(903,948)" d="m0 0 4 2 5 3 4 2-1 4h-5l-1-4-4-1z" fill="#E60230"/>
<path transform="translate(921,885)" d="m0 0h16l1 4-3 1v-2l-9 1-3 1z" fill="#FEFEFE"/>
<path transform="translate(1011,791)" d="m0 0h2l2 9h-27v-1l20-1 2-1v-5z" fill="#FBF7F5"/>
<path transform="translate(675,510)" d="m0 0h17v2l-3 1-12 1-3 2z" fill="#E5C8B4"/>
<path transform="translate(697,916)" d="m0 0h1v12l-2 15-2-3-1-3z" fill="#B90931"/>
<path transform="translate(670,937)" d="m0 0h1l2 9 3 1-1 5h-5l-1-1v-13z" fill="#A50532"/>
<path transform="translate(1322,792)" d="m0 0h2l1 2v6h-28v-1l23-1 2-1-1-4z" fill="#FCFAF8"/>
<path transform="translate(1e3 505)" d="m0 0h8l-1 5-4 9-1-3 1-4h-2z" fill="#E68E14"/>
<path transform="translate(1413,825)" d="m0 0h14l-5 4-6 3v-4l-3-1z" fill="#E4881A"/>
<path transform="translate(884,794)" d="m0 0 2 1 1 5h-30v-1h23v-2l4-1z" fill="#FBF9F6"/>
<path transform="translate(1380,777)" d="m0 0h10v4h-2v16l-2-1 1-15-5-1v-2z" fill="#F7F2E9"/>
<path transform="translate(725,949)" d="m0 0 9 5h4v2l-5 2-4-1-4-3z" fill="#E60230"/>
<path transform="translate(603,895)" d="m0 0h5l1 1v6l-5 1-2-1v-6z" fill="#C60D30"/>
<path transform="translate(795,731)" d="m0 0h2v15h-19v-1l16-1z" fill="#FDFDFD"/>
<path transform="translate(603,901)" d="m0 0 1 2 5-1 1 3 13 1v1h-14l1 4-5-4-2-3z" fill="#A60732"/>
<path transform="translate(675,877)" d="m0 0 6 2 2 5v8h-2l-1-8-5-3-1-2z" fill="#CA0332"/>
<path transform="translate(537,868)" d="m0 0h16l2 2-1 1h-23v-1h6z" fill="#E60230"/>
<path transform="translate(475,906)" d="m0 0 4 5v9l3-1-1 7-2-1-4-13z" fill="#C10332"/>
<path transform="translate(672,931)" d="m0 0h1l2 11-1 7-2-3-1-2v-10z" fill="#C40A31"/>
<path transform="translate(832,954)" d="m0 0h8v2l3 1-2 2-8-1z" fill="#E60230"/>
<path transform="translate(1087,903)" d="m0 0 4 1 1 7-2 2h-3z" fill="#E60230"/>
<path transform="translate(599,931)" d="m0 0 4 2 2 2-1 5h-5z" fill="#A70332"/>
<path transform="translate(651,743)" d="m0 0h3l2 4v6l-2 1-3-4-1-3z" fill="#F9F3EF"/>
<path transform="translate(584,904)" d="m0 0 5 5 1 3-5 2-2-5z" fill="#D40B30"/>
<path transform="translate(825,917)" d="m0 0 1 3-3 9-2 2-1-8 4-4z" fill="#A60632"/>
<path transform="translate(647,679)" d="m0 0 4 1 3 4-1 4-4-1z" fill="#F9F4F0"/>
<path transform="translate(486,956)" d="m0 0 2 1-7 6-5 5-4 1 5-5z" fill="#B90332"/>
<path transform="translate(898,505)" d="m0 0h14v1h-9l-3 6-2 1z" fill="#E68D14"/>
<path transform="translate(1175,950)" d="m0 0 5 3 7 8h-3l-9-9z" fill="#CA0332"/>
<path transform="translate(837,632)" d="m0 0 3 2 2 9-3 1-2-6z" fill="#F0E3D5"/>
<path transform="translate(280,759)" d="m0 0h1l1 23-2 2-1-3z" fill="#F5EEE1"/>
<path transform="translate(1057,919)" d="m0 0h1v6l-4 5-1-7z" fill="#A40433"/>
<path transform="translate(944,587)" d="m0 0 3 4 1 4h-2l-1 3-2-5v-5z" fill="#EEDECE"/>
<path transform="translate(1006,894)" d="m0 0 2 1v2h2l-2 4-1 10h-1z" fill="#E60230"/>
<path transform="translate(965,512)" d="m0 0 5 1-2 5-2 1-1-2-2 1 1-5z" fill="#E68D15"/>
</svg>
