<?xml version="1.0" encoding="UTF-8"?>
<svg version="1.1" viewBox="290 150 1100 1140" width="1100" height="1100" xmlns="http://www.w3.org/2000/svg">
<path transform="translate(670,150)" d="m0 0h10l10 2 19 10 14 10 16 13 3 2 18-2 15-2h46l26 3 12 1 14-12 17-12 16-9 12-4h10l8 3 7 6 4 9 1 7v25l-2 14-6 29-5 16v6l3 7v4l19-5 10-2h12l5 3 13 27 10 19 4 7 9 3 8-8 7-4 6-2 7-1h18l16 3 13 3 16 4 19 6 18 5 30 10 12 5 25 10 11 7 7 6 9 12 7 14 2 7v14l-6 15-12 23-8 12-12 16 21 12 27 15 46 26 26 15 15 9 1 2v16l-2 29-3 6-4 3h-3v12l-1 5-1 15-1 5-1 15-1 5-1 15-1 5-1 21-2 9-1 14-4 7-7 8-10 5-12 3h-42l2 13 1 14v28l-3 5-8 4h-2v14l-2 13-3 12-6 14 33-1 38-2 15-1v8l11-7 7-2 29-2h14l8 2 8 5 5 5 6 8 3 8 1 7v48h-3l3 9v38l-3 12-6 10-7 7-10 5-7 1v7l-4 9-8 7-29 17-7 3-48 1-11 12-25 25-8 7-10 9-11 9-14 11-15 11 2 4 10 9 4 3v2l-41 17-29 12-8 5-16 15-7 7-8 7-9 9-8 7-5 4v-37l-28 11-13 5-35 10-39 9-28 5-50 5h-72l-41-4-41-7-34-8-24-7-24-8-10-4-18-7v36l-4-2-11-11-8-7-9-9-8-7-10-10-9-6-11-5-16-6-8-4-16-6-12-5-11-5 5-5 13-12-5-5-16-12-11-9-14-12-12-11-13-12-11-11-7-8-4-4-27-1-7-3-20-12-12-8-5-6-3-6v-7h-59v-168h14l93 6 9 1-5-11-3-11-3-18v-11l-7-2-5-6v-38l2-18h-44l-13-4-8-6-8-10-2-4-1-20-1-1-2-29-6-60v-10l-5-1-3-3-2-5-2-24-1-21 5-4 10-6 14-8 19-11 23-13 16-9 10-6 11-6 14-8 12-6 14-8 36-20 10-6 12-6 17-10 14-7 14-8 24-13 12-7 14-7 4-1 2-6 8-15 30-60 15-29 7-13 3-2h12l12 3 2-7 1-4-5-17-7-30-2-14v-25l3-12 6-8 6-4z" fill="#1C1C1B"/>
<path transform="translate(672,162)" d="m0 0h8l11 4 13 7 14 10 2 5 16 13 9 9-1 10-4 11-3 3-5-1-3-4-2-14-5-10h-2l-2 9-5-5-8-11-11-12-11-11-5-3h-5l-2 10 1 20 5 30 5 15 2 4 6 1v-2l-4-2 3-2h8l-5-5 3-2h8l12 3 1-7 2-1 1 7 1 18 6-3 5-5 6-5 1-5 3-6h14l-2-7 7 1 12 7 6 4-2-4 1-3 9 7 10 15 3 6v2h2l2-5 9-14 7-8 6-3-2 7 15-10 9-2-1 7 12-1-5-15-1-11 10-9 14-11 13-10 18-11 12-5h9l4 2 4 8 1 6v10l-2 23-5 24-5 20-3 9 1 4 5 11 8 28 4 20v24l-3 19-3-1-2-2-5 17-13 20-3 8-6 20-11 8-11 11-8 7-16 13-17 11-16 8-15 5-12 2 1 10 4 16-4 2-26-20v-2h-2v8l-5-5-8-11v-2h-2l-1 5-4-1-7-9-1-8-10-6-12-9-11-9-10-10-3-4-9-35-13-20-4-8-3-11h-2l-3 3-3-18-1-17 2-16 6-25 7-21 3-7-1-7-8-32-4-22-1-9v-20l2-9 4-5z" fill="#EB9D0D"/>
<path transform="translate(511,1074)" d="m0 0h33l253 4h183v1l10 1 80-1h78l-15 56-2 7v5l13 13 2 4h-158l-11 1 16 1v1l-145 1-291 1h-42l6-7 12-10-4-16-18-61z" fill="#DE0230"/>
<path transform="translate(702,295)" d="m0 0 1 4v18l3 10 6 11 2 1v-11l5 5 8 7 8 3h11l9-2 6 4 4 6 7 6 10-1 5 6 3 5 10 3v2l-11 6-4 1h-17l-11-4-9-7-8-8v-2l-5-2-14-3 2 6 9 3 7 4 7 9 5 5 4 16 7 14 7 6 2 1 1 11 4 10 7 6 9 3h17l11-4 6-7 3-7 1-12 8-6 5-7 4-9 4-16 7-7 7-8 13-5 2-6-12 2-6 4-12 12-10 6-6 2h-18l-10-4-5-3v-2l10-3 3-4 3-5 2-2h6l4 1 9-8 2-5 7-3 8 2h10l9-3 10-9 3-3v11h2l2-5 5-10 2-9v-20l3 4 4 9 2 14 7-13 2 3 1 14v18l-2 15-6 16-3 6 1 5 4 7v2l-9-2 3 17v10l-5-5-4-5-1 14-4 12-4 8-2-3-2-6-1 1-3 18-11 10-15 11-13 8-14 7-15 5-12 2 1 10 4 16-4 2-26-20v-2h-2v8l-5-5-8-11v-2h-2l-1 5-4-1-7-9-1-8-10-6-8-6-5-18-3-16-3 10-2-1-6-14-2-11v-8l-8 10h-1v-12l4-16-8 3-3-1 6-10-1-4-6-14-3-11-1-8v-25l1-12 2-1 6 12v2h2v-11l3-10z" fill="#F4EFE2"/>
<path transform="translate(511,1074)" d="m0 0h33l190 3 13 1 1 2-3 2 1 1 11 2 1 3h6v1l-15 1-7 3-2 4v52l4 5 9 3 4 3-13 3 12 1v2h24v1l-152 1-71 1h-42l6-7 12-10-4-16-18-61z" fill="#AE0433"/>
<path transform="translate(685,1191)" d="m0 0h344l41 1v4l-26 11-25 9-34 10-30 7-35 6-38 4-19 1h-41l-31-2-33-4-38-7-28-7-35-11-34-13-10-5v-3z" fill="#EDA706"/>
<path transform="translate(356,1039)" d="m0 0h994l-5 4-22 13h-941l-18-11-8-5z" fill="#E57820"/>
<path transform="translate(747,1078)" d="m0 0h233v1l8 1v1l-68 1-18 1-5 1-11 1v75l16 2 85 1v1l-10 1 16 1v1l-145 1h-220v-1l128-1v-2h-220v-1l208-1 10-2 1-1-3-2-9-3-4-5v-52l3-5 7-3 9-1-1-2-11-2-5-2 4-2z" fill="#C00332"/>
<path transform="translate(513,529)" d="m0 0h2l-2 5-27 54-21 41-21 42-2 5-25 9-42 14-10 4-11 4h-5l-2-36-1-23v-28l17-10 24-13 23-13 25-13 22-12 32-17z" fill="#838F9F"/>
<path transform="translate(654,381)" d="m0 0 2 2 3 13 6-5 7 10 6 10 6 39-1 5-9 8 1 4 2 5v3l-10 8-14 12-12 11-8 7-27 27-18 22-10 16-5 11-2 8v12l5 20-31 11-18 7-20 7-2-1 17-32 10-18 13-24 10-18 16-29 14-26 10-18 16-29 14-26 10-18 16-29z" fill="#E4C9B4"/>
<path transform="translate(740,536)" d="m0 0 5 2 23 12 11 4 13 3 19 1 1 6-14 4h-18l-12-3-13-7-2-1 6 7 11 7 11 4 5 1h28l2 16 2 19 1 18v39l-1 13-3 2-5-1-8-12-3-4-6 1-8 6-1 4 9 11 4 5v2h-18v10h-4v-7l-14-1-17-2-16-1v-17l-10-1v-7l6-39 12 2 16 2-25-8-1-1v-8l5-29 4-20 2-9z" fill="#F4F0E4"/>
<path transform="translate(1153,555)" d="m0 0 16 8 17 9 6 3 46 25 23 13 12 7v23l-3 64-8-1-42-15-36-12-7-3-25-50-4-9 1-8v-9l-2-10 3-8 2-9z" fill="#828F9F"/>
<path transform="translate(893,470)" d="m0 0 10 4 15 7v2l5 1 19 10 5 2-2 5-5 4-4 6-3 2-7 1h-35l-13-1-10 17-1 2v6l7 9 8 7 2 2 1 9 1 5v12l-9 36-2 13v15l4 13 7 10 9 8 15 8 15 5 15 3-2 2-19 3h-33l-14-1-2 1v13l2 27h-6v2l-44-1-1-1v-29l17-55 10-36 5-21 2-13v-9l-6-12-12-17-11-15 1-3 19-9 16-12 13-13 14-19z" fill="#6F4B2A"/>
<path transform="translate(743,264)" d="m0 0h11l8 4 6 8 5 15 2 4 1 6v15l-6 18-1 6 8-3 12-2h23l16 3 4 2-2-10-5-14v-14l2-11 2-3 4-12 4-6 5-4 5-2h11l9 4 7 7 4 10v12l-3 9-3 3-5 1 2-5 1-3v-18l-5-8-7-4h-8l-6 3-4 5v3l6-5h11l6 4 4 6 1 3v11l-4 8-6 4-15 3h-10l8 20v7l-3 6-9 8-10-1-3 3-3 6-4 3-8 1v2l15 6h18l10-4 9-7 11-11 4-2 12-1v5l-4 3-11 4-13 14-4 16-7 14-8 7-2 1-1 12-5 10-7 6-9 3h-17l-11-4-7-8-3-8v-11l-5-2-7-8-5-11-4-16-8-8-3-4v-2l-5-2-10-3-3-3v-5l11 1 8 4 7 8 7 6 10 5 4 1h17l15-6v-2l-8-1-5-4-3-6-2-2h-6l-4 1-10-9-2-4v-8l8-20h-10l-14-3-7-3-4-8v-12l3-7h1l2 6h9v-6l-3-2h-6l4-4h10l6 4 3 3 2 6v12l-4 8-2 2 7-1v-15l-3-14-5-8-6-3h-8l-6 3-5 6-1 3v17l3 9-5-1-3-3-3-8v-14l6-12 8-6z" fill="#201E1D"/>
<path transform="translate(781,760)" d="m0 0h74l10 3 8 7 3 6v48l-4 8-5 4 1 8 9 27 2 7v9h-38l-7-22-5-18-1-7h-7v47h-40z" fill="#E57820"/>
<path transform="translate(883,556)" d="m0 0 30 10 9 2 1 18 6 25 6 17 10 19 11 29 16 48 4 14h-10l-3-8-7-22v-3h-2l-1 6-8 18-6 9h-67l-2-15-1-12v-13l3-2 14 1h33l19-3-23-6-17-8-9-7-8-9-5-10-2-8v-15l4-22 7-27v-12l-2-8z" fill="#9A714A"/>
<path transform="translate(890,760)" d="m0 0h40l1 45 9-21 7-15 5-9h40v8l-8 16-13 28-4 8 1 6 18 40 6 13v8h-41l-9-22-5-11-6-14-1 47h-40z" fill="#DA6227"/>
<path transform="translate(702,295)" d="m0 0 1 4v18l3 10 6 11 2 1v-11l5 5 8 7 8 3h11l9-2 6 4 4 6 7 6 10-1 5 6 3 5 10 3v2l-11 6-4 1h-17l-11-4-9-7-8-8v-2l-5-2-14-3 2 6 9 3 7 4 7 9 5 5 4 16 7 14 7 6 2 1 1 11 4 10 7 6 9 3h17l11-4 6-7 5-12 8-9 2-3 24-6 12-5 8-6 7-7v3l-7 11-9 8-13 6-6 18-6 8-5 5-1-10-5 8-1 3h-2l-2 4-8 7-15 9-2-2-2-5-7 18-3-4-5-13-4 6-14-8-10-9-5-3h-6v-2l-15 2-14 1-2 5-2-4-3-16-3 10-2-1-6-14-2-11v-8l-8 10h-1v-12l4-16-8 3-3-1 6-10-1-4-6-14-3-11-1-8v-25l1-12 2-1 6 12v2h2v-11l3-10z" fill="#F4F0E2"/>
<path transform="translate(574,410)" d="m0 0 2 1-15 29-10 20-6 10-52 26-19 10-30 15-19 10-70 35-19 10-42 21h-2l-2-24v-6l26-14 45-25 56-31 56-31 85-47z" fill="#EEA905"/>
<path transform="translate(692,760)" d="m0 0h54l3 9 22 100 2 9v9h-39l-3-14v-6h-24v8l-3 12h-39v-9l9-40 17-76z" fill="#E6781F"/>
<path transform="translate(919,162)" d="m0 0h9l4 2 4 8 1 6v10l-2 23-5 24-5 20-3 9 1 4 5 11 8 28 4 20v24l-3 19-3-1-2-2-5 17-13 20-3 8-6 20-11 8-11 11-4 2 2-17 2-4 4 11 6-15 1-4 1-15 5 5 4 5v-9l-3-15 1-3 9 3-6-11 1-5 5-11 4-14 1-10v-18l-1-14-1-1-7 12h-1l-2-15-7-15-7-12h7l5 1-6-7-10-8-16-9 2-3-5-6-4-2-1-11-4-10v-7l22-22 8-7 8-8 1-3-14 9-15 11v-3-2l17-13 15-10 13-7z" fill="#E57820"/>
<path transform="translate(442,900)" d="m0 0h19l18 1 1 1 8 54 7-47 1-6h38v115h-26l-1-60-2 16-2 13-4 27-1 4h-20l-3-17-4-29-2-11-1 57h-26z" fill="#F0ECE2"/>
<path transform="translate(292,891)" d="m0 0 29 1 23 2 6 4 5 6 2 5v95l-5 8-4 4-5 2h-51z" fill="#F0EDE2"/>
<path transform="translate(673,171)" d="m0 0 7 1 10 9 13 13 10 13 4 6 3-10 5 5 4 11 1 10 2 4h6l4-9 2-8v-6l-11-11-13-10-2-4 4 1 10 8 14 12 3 3-1 10 9-14-1-4-2-3 25-3 16-1h12l34 3 5 1-2 4h-2l9 15 4 6 4 12h-13l1-7-10 4-11 7-3 1 1-6-8 6-9 13-6 10h-2l-9-16-7-9-6-4 1 6-5-2-9-6-7-3h-3l1 6h-14l-2 6-1 6-6 4-5 5-6 4-2-1-1-18-1-6-2 7-12-2h-8l-2 2 6 4v1h-10l-2 1 3 2v2h-6l-5-10-4-15-4-25-1-20 2-10z" fill="#E57820"/>
<path transform="translate(1174,1039)" d="m0 0h176l-5 4-22 13h-820v-1l149-1 98-3 126-3 238-6 52-2z" fill="#EC9216"/>
<path transform="translate(672,162)" d="m0 0h8l11 4 13 7 14 10 2 5 16 13 9 9-1 10-4 11-3 3-5-1-3-4-2-14-5-10h-2l-2 9-5-5-8-11-11-12-11-11-5-3h-5l-2 10 1 20 5 30 5 15 2 4 6 1v-2l-4-2 3-2h8l-5-5 3-2h8l12 3 1-7 2-1 1 7 1 18 6-3h3l2 2-16 9-9 7-7 7 12-1-2 5-8 13-4 9-2 16h-2l-7-13-1 12v25l3 16 6 15 2 3-1 4-5 9 10-2-2 11-1 5v11l8-10 1 3 1 13 5 14 2 4 4-11h1l4 22 3 10v3l-4-2-11-9-10-10-3-4-9-35-13-20-4-8-3-11h-2l-3 3-3-18-1-17 2-16 6-25 7-21 3-7-1-7-8-32-4-22-1-9v-20l2-9 4-5z" fill="#E57720"/>
<path transform="translate(511,1074)" d="m0 0h33l190 3 13 1 1 2-3 1-115-1h-46l3 4v75l1 3h7v1l161 1v2h24v1l-152 1-71 1h-42l6-7 12-10-4-16-18-61z" fill="#9C0532"/>
<path transform="translate(1103,905)" d="m0 0h25v113h-29l-2-5-8-41-1 46h-26v-111l1-1h29l7 32 2 9 1-41z" fill="#F1EDE1"/>
<path transform="translate(529,683)" d="m0 0h19l14 3 8 5 4 6v7l-4 6-7 6-16 8-18 7-24 7-14 3-144 3h-8l1-2 64-20 71-22z" fill="#3C4754"/>
<path transform="translate(1179,770)" d="m0 0h7l10 2 10 6 7 6v2h2l6 12 4 13 1 7v26l-3 14-5 13-6 9-7 2-36 1-7-10-5-13-3-15v-28l2-13 6-15 6-9 5-6z" fill="#3D4855"/>
<path transform="translate(1070,683)" d="m0 0h19l58 18 132 41 1 2-103-2-49-1-15-3-29-9-19-8-12-7-5-5 3-9 4-13 9-3z" fill="#3C4754"/>
<path transform="translate(367,896)" d="m0 0h18l9 1 1 99h8l1-98h17l11 1v104l-4 8-7 6-3 1h-38l-8-5-5-8z" fill="#F5F0E5"/>
<path transform="translate(1359,892)" d="m0 0h18l8 7 3 7v30l-9 1h-19l-1-22h-7l-1 20 5 2 22 15 6 5 3 5 1 4v36l-4 9-7 6-3 1h-37l-8-4-6-10v-35h28l1 27h7v-24l-22-15-8-6-5-6-1-3v-33l4-8 7-6 2-1z" fill="#F3EEE3"/>
<path transform="translate(430,770)" d="m0 0h9l6 4 8 9 8 16 3 11 1 9v24l-3 16-5 13-5 8h-16l-31-2-8-16-4-16-1-8v-14l3-18 5-13 5-8 9-8 9-5z" fill="#4E5A6A"/>
<path transform="translate(924,909)" d="m0 0h53l6 3 6 7 1 4v38l-4 8-3 3h-2l4 14 7 30v2h-26l-3-9-7-31v-3h-4v43h-28z" fill="#F5F1E5"/>
<path transform="translate(685,1191)" d="m0 0h101v1l-15 1 33 4 8 2v40l-1 2-5-1h-2l-7 2-16-1-30-4-35-7-31-8-36-12-28-11-8-4v-3z" fill="#EB9C0D"/>
<path transform="translate(813,910)" d="m0 0h54l6 4 4 5 1 2v42l-3 6-4 5 10 41v3h-27l-5-21-4-19v-3h-4v43h-28z" fill="#F4F0E4"/>
<path transform="translate(651,282)" d="m0 0h2l4 6-1 10-4 15-3 10-16 31-12 22-13 25-12 22-13 25-6 11-7 12-7 14-8 15-5 10-40 75-9 17-24 45-10 19-12 23h-2l-5-11 2-6 12-24 12-22 28-56 10-19 16-32 10-19 11-21 20-40 10-19 24-47 17-33 14-27 15-28z" fill="#687482"/>
<path transform="translate(1219,900)" d="m0 0h26l7 46 10 65v7h-27l-2-20h-16l-2 20h-27v-7l8-50 5-31 4-26 1-3z" fill="#F3EFE4"/>
<path transform="translate(686,493)" d="m0 0h11l-6 7-8 8-7 8-25 25 1 83v4l-8 7-5 2h-13l-10-4-10-8-8-7 3 11 7 14 5 5 9 8 13 8 17 8 4 2v5h-13l-15-7-9-5-4-5-3-2v-2l-3-1-9-11-9-13-4-8-3-9v-11l8-16 12-17 11-13 13-14 7-8 8-8 7-8 13-12 7-7 10-8z" fill="#9A714A"/>
<path transform="translate(572,767)" d="m0 0h20l13 4 9 7 7 8 8 16 3 9 3 14v25l-2 13-4 14-6 11-8 4-6-1-6-3-4-1-25-1 1-5 5-13 3-14 1-8v-19l-3-18-5-15-7-13-3-4v-5z" fill="#929EAC"/>
<path transform="translate(1165,478)" d="m0 0 4 1 14 8 12 6 9 5 17 10 12 6 14 8 20 11 10 6 12 6 23 13 12 7 4 2v15l-1 15-5-1-19-10-68-34-23-12-50-25-7-4v-6l7-18z" fill="#ED9415"/>
<path transform="translate(627,907)" d="m0 0h33l10 2 6 4 4 7v27h-27l-1-20h-8l-1 17 5 2 17 11 10 7 4 5 1 2v34l-3 6-7 6-3 1h-38l-6-3-5-5-3-7v-29h28l1 24h8v-20l-17-11-12-8-6-7-2-5v-26l4-8 6-5z" fill="#F3EFE3"/>
<path transform="translate(721,353)" d="m0 0 11 1 8 4 7 8 7 6 10 5 4 1h17l10-4 6-3 9 5 6 2h18l10-4 9-7 11-11 4-2 12-1v5l-4 3-11 4-13 14-4 16-7 14-8 7-2 1-1 12-5 10-7 6-9 3h-17l-11-4-7-8-3-8v-11l-5-2-7-8-5-11-4-16-8-8-3-4v-2l-5-2-10-3-3-3z" fill="#1E1E1E"/>
<path transform="translate(544,904)" d="m0 0 41 1 12 1 6 4 5 6 1 2v45l-3 6-6 5-2 1h-26v43h-28z" fill="#F4F0E4"/>
<path transform="translate(856,443)" d="m0 0h7l9 1h6l1 1v9l-11 10-15 11-13 8-14 7-15 5-12 2 1 10 4 16-4 2-26-20v-2h-2v8l-5-5-8-11v-2h-2l-1 5-4-1-7-9-1-8-10-6-8-6-3-10v-8l2-2 29-2v2l7-1 8 7 9 7 11 6 3-7 3 4 5 13 2-3 5-13 2-1 3 7 15-9 9-8 1-2h2l1-2v2h9l2-4z" fill="#FBFBFA"/>
<path transform="translate(637,361)" d="m0 0h3l1 2v13l-4 16-4 10-12 23-12 22-15 29-12 22-12 23-12 22-13 25-8 15-7 13-8 15-9 17-12 22-13 25-9 4-12 4-2-1 12-23 18-33 24-45 7-13 16-30 6-11 7-12 8-16 17-32 30-56 17-32z" fill="#9AA7B6"/>
<path transform="translate(891,760)" d="m0 0h39l1 45 9-21 7-15 5-9h40v8l-8 16-13 28-5 10-6 1v-2h-4v2h-18l-4 1-2-1-2 1h-36l-3 1z" fill="#E57920"/>
<path transform="translate(1090,409)" d="m0 0 9 3 54 23 49 21-1 4-5 2-10-3 10 5 6-1 4-5v-2l-34-15-35-15-2-2h68l15-5 5-2 7 1 7 3-4 10-10 18-11 16-9 11-7 4-6 1-80-40-23-11-4 1-7 7-2-1 13-24z" fill="#DB0230"/>
<path transform="translate(781,760)" d="m0 0h1l1 66 3-1h10l1 1 12 1v-2h26v-1h31l3 1-1 3-4 3 8 25 7 22v9h-38l-7-22-5-18-1-7h-7v47h-40z" fill="#DA6326"/>
<path transform="translate(1133,335)" d="m0 0 10 2 49 17 13 5 9 6 9 9 9 16 7 14v12l-1 2-9-3-5-2h-9l-12 4-2 1-24-1-32-3 1-5 7-17 2-9v-8l-5-13-9-15-8-11z" fill="#EDA806"/>
<path transform="translate(707,1180)" d="m0 0h270l93 1v11h-457v-11z" fill="#6D4928"/>
<path transform="translate(671,402)" d="m0 0 4 4 3 5 6 39-1 5-9 8 1 4 2 5v3l-10 8-14 12-12 11-8 7-27 27-18 22-10 16-5 11-2 8v12l5 20-31 11-5 2h-3l2-5 14-25 16-28 14-25 12-21 26-46 14-25 13-23 13-24z" fill="#F4F0E4"/>
<path transform="translate(927,571)" d="m0 0 3 1 7 8 10 4 39 9 6 1 2-5 3-3 5 19 7 14 9 10 17 12 15 8 3 2-17 8-17 4h-11l-14-4-15-8-13-10-14-12-7-7-7-8-3-7-7-30z" fill="#6F4B2A"/>
<path transform="translate(403,588)" d="m0 0 2 2 1 44 1 4-11 11-8 7-3 1 2 4v34l-12 4-10 4-11 4h-5l-2-36-1-23v-28l17-10 24-13z" fill="#6C7886"/>
<path transform="translate(1214,588)" d="m0 0 5 2 19 10 23 13 12 7v23l-3 64-8-1-28-10-1-2v-37l-21-18 1-5z" fill="#6C7886"/>
<path transform="translate(751,909)" d="m0 0h54v19h-26v24h24v19h-24v28h26v19h-54z" fill="#EFECE2"/>
<path transform="translate(1032,907)" d="m0 0h22v19h-27v25h25v19h-25v29h27v19h-54v-110z" fill="#F3EFE3"/>
<path transform="translate(531,434)" d="m0 0h2l2 7-27 15-24 13-23 13-28 15-23 13-28 15-18 10-58 32-7 4v13l20-9 58-29 19-10 27-14 19-10 56-29 33-17 19-10h2l-2 5-5 9-52 26-19 10-30 15-19 10-70 35-19 10-42 21h-2l-2-24v-6l26-14 45-25 56-31 56-31 29-16z" fill="#F5D878"/>
<path transform="translate(1061,393)" d="m0 0 6 2 18 10-8 16-13 25-12 22-17 32-12 22-13 24-4 1-16-5-8 6-3-1 15-28 14-27 4-7 1-4 6-9 19-37 12-22 10-19z" fill="#DD0230"/>
<path transform="translate(522,511)" d="m0 0h2l-2 6-6 12-16 8-23 12-22 12-32 17-22 12-24 13-23 13-7 4v28l2 47v12l2 1-15 5h-2l-2-21-5-72v-6l14-8 29-15 22-12 37-19 22-12 37-19 22-12z" fill="#4F5C6C"/>
<path transform="translate(681,510)" d="m0 0 2 1 3 11v25l-4 7-6 12-3 11-2 10h-1v-8h-2l1 16v15l-8 40-4 28-2-4-16-7-11-6-12-9-7-6-6-10-6-16 1-3 11 10 11 7 6 2h13l8-4 5-5-1-3-1-83z" fill="#8E673F"/>
<path transform="translate(1175,902)" d="m0 0h21v19l-1 1h-17v96h-28v-95h-17v-19z" fill="#F4F0E4"/>
<path transform="translate(1283,897)" d="m0 0h13v100h24v21h-52v-120z" fill="#EBDECB"/>
<path transform="translate(684,908)" d="m0 0h22l40 1v18h-17v91h-28v-91h-17z" fill="#F4EEE1"/>
<path transform="translate(1313,1043)" d="m0 0h29l-4 4-15 9h-551v-1l114-1 91-3z" fill="#EB9D0C"/>
<path transform="translate(892,388)" d="m0 0v3l-7 11-9 8-13 6-6 18-6 8-5 5-1-10-5 8-1 3h-2l-2 4-8 7-15 9-2-2-2-5-7 18-3-4-5-13-4 6-14-8-10-9-5-3h-6l-9-12-5-12-3-8-15-8-5-4-8-12 1-2 9 8 8 5 20 6 13 3 7 9 5 7 4 10 7 6 9 3h17l11-4 6-7 5-12 8-9 2-3 24-6 12-5 8-6z" fill="#EEE2CE"/>
<path transform="translate(511,1074)" d="m0 0h33l190 3 13 1 1 2-3 1-115-1-95-1 13 47 5 18-2 4-9 10-5 5 219 1v2h24v1l-152 1-71 1h-42l6-7 12-10-4-16-18-61z" fill="#DA0230"/>
<path transform="translate(1158,544)" d="m0 0 6 2 28 15 31 16 19 10 28 15 22 12-6 89-1 10-5-1-12-4 2-1v-17l2-47v-23l-29-16-24-13-22-12-6-4-7-3-17-9-13-7-2 1v-5l4-5z" fill="#4F5C6C"/>
<path transform="translate(951,357)" d="m0 0 3 4 13 24 13 23 7 13-1 6-13 23-12 22-3 1-18-8-6-4 3-26 5-32 3-21 4-17 1-7z" fill="#E3C8B4"/>
<path transform="translate(765,846)" d="m0 0h1l7 32v9h-39l-3-14v-6h-24v8l-3 12h-39v-9l6-28 2 1 4-1 73-2h12l3 1z" fill="#D75626"/>
<path transform="translate(537,482)" d="m0 0h2l-2 5-7 14-27 15-48 26-45 23-27 13-17 7-5 3-12 4-10 4-8 2h-9l-3-3 4-4 38-19 17-9 17-8 15-8 16-8 39-20 45-23z" fill="#808D9D"/>
<path transform="translate(1142,1074)" d="m0 0h27l-1 7-20 68 1 4 10 9 7 6v1l-318-1v-1l129-1-1-2 12-1h157l-9-10-6-6 1-9 16-58h-79l-79 1-12-1v-1l-24-1v-1z" fill="#AC0432"/>
<path transform="translate(1027,767)" d="m0 0h20l5 3 1 6-9 15-5 13-3 13-1 8v23l3 17 6 16 2 6h-8l-6-5-5-5-8-7-8-6-9-19v-2l6-1 3-8v-15l-2-15-3-7 1-7 10-20z" fill="#818E9E"/>
<path transform="translate(501,554)" d="m0 0 1 2-15 29-8 17-10 19-25 50-2 5-14 5h-4l-1-57 10-10 8-7 15-13 14-13 8-7 10-9z" fill="#D2D7DB"/>
<path transform="translate(1091,572)" d="m0 0h18l7 2 7 3 8 6 4 5 2 4v12l-3 10-6 10-10 8-9 3 7-12 4-5-4 1h-11l-23-5-6-2 9 7v1l-9-1-14-7-7-8 1-8 13-13 13-8z" fill="#F3EFE4"/>
<path transform="translate(767,269)" d="m0 0 6 3 4 5 47-1 9-1-2 9-2 8-2 3-1 7v14l6 17v7l-20-4h-23l-16 3-4 1 1-9 6-18 5 1-2-20-3-9h-3l-6-14z" fill="#EEA806"/>
<path transform="translate(675,1089)" d="m0 0h23l2 5 4 23 4-24 2-4h22l1 1v59l-1 1h-15l-1-30-5 28-1 2h-12l-2-7-4-23-1 30-16-1z" fill="#F5F0E3"/>
<path transform="translate(1016,385)" d="m0 0 5 1 3 3-1 6-2 5v5l4 4-2 6-13 24-13 23-15 28-13 23-4 7-5-1-9-6-4-6 2-7 13-23 14-26 12-22 14-26 13-17z" fill="#DD0230"/>
<path transform="translate(1165,478)" d="m0 0 4 1 14 8 12 6 9 5 17 10 12 6 14 8 20 11 10 6 12 6 23 13 12 7 4 2v15l-1 15-5-1-19-10-68-34-23-12-50-25-7-4v-6l3-3 29 15 23 12 42 22 60 30 7 3 1-14-6-2-105-58-24-13-21-12z" fill="#F5D879"/>
<path transform="translate(736,487)" d="m0 0h1v18l-4 39-5 29-7 36-11 75-3 22h-1v-12l3-46v-145l24-14z" fill="#DFC6B3"/>
<path transform="translate(679,590)" d="m0 0 2 2 2 14 1 14 1 31v32l-1 32-2 23h-11l-1 9-5 21-2 2-7-8v-10l4-47 6-45 9-53 3-16z" fill="#8D663F"/>
<path transform="translate(572,767)" d="m0 0h20l13 4-2 1v113l-1 2-28-1 1-5 5-13 3-14 1-8v-19l-3-18-5-15-7-13-3-4v-5z" fill="#828F9E"/>
<path transform="translate(743,271)" d="m0 0h8l8 5 5 10 2 11v15l-3 2h-6l5-8 1-3v-12l-3-7-5-4-2-1h-10l-2 2 6 1 2 2-1 6-2 1h-7l-2-2-1-4-2 6v12l4 8 13 4 17 2-1 5-6 15-1 7-6-2-8 2h-11l-9-4-8-7-3-4-1 10-3-1-8-16-1-5v-23l9-14-7 2h-6l4-5 7 1 16-1-1 7v14l3 10 6 1-2-3-1-5v-17l3-6 7-6z" fill="#EDA806"/>
<path transform="translate(1150,584)" d="m0 0 4 2 15 14 11 9 11 10v2l4 2 1 4-1 54-8-1-10-4-25-50-4-9 1-8v-9l-2-10z" fill="#D1D6DA"/>
<path transform="translate(1041,318)" d="m0 0h8l10 4 8 7 4 8 1 4 14 4 1 5 2-9 2 4 15 4 5 6 5 9 4 2 6 1 1-2 2 4v10l-8 16-10 18-4 1-12-6 2-5 14-26 1-3v-10l-5-9-1-3-3 1-13 24-11 19-2 1-10-4-16-8 2-6 12-21 3-9v-9l-3-7-7-8-10-4-10-1z" fill="#828F9F"/>
<path transform="translate(1179,770)" d="m0 0h7l10 2 10 6 7 6v2h2l6 12 4 13 1 7v26l-3 14-5 13-6 9-1 1h-20l-1-4 7-2 8-5 6-10 4-16v-19l-4-16-6-10-9-6-6-1 2-1v-3l-8 1-8 6-6 6-5 12-2 8v22l1 5v7l-5 4h-2l-3-14v-28l2-13 6-15 6-9 5-6z" fill="#4E5B6B"/>
<path transform="translate(809,519)" d="m0 0 5 5 14 19 13 18 8 13v14l-3 17-6 23-6 19-5 18-5 15h-1v-57l-2-32-7-46z" fill="#F2EDE2"/>
<path transform="translate(442,900)" d="m0 0h19l1 6v70l-1 3h4v36l-5 1 7 1v-68h2l-1 69h-26z" fill="#ECDFCC"/>
<path transform="translate(688,492)" d="m0 0h11l15 1-3 3-8 5-5 18-9 42-2 11v14l11 128v24h-16l2-55v-32l-1-31-2-22-2-10 4-19-8 20-3 9h-1l-1-11 5-21 6-12 4-7v-25l-3-11 1-4 13-13-8-1z" fill="#623D1E"/>
<path transform="translate(1124,462)" d="m0 0 9 1 8 4 4 4v9l-1 4v19l5 16 3 5 1 4v10l-3 6h-3l-5-5-23-13-6-3-6-33-1-3v-7l6-10 9-7z" fill="#F4F0E4"/>
<path transform="translate(673,171)" d="m0 0 7 1 10 9 13 13 10 13 5 8v9l-3 18-12-2h-8l-2 2 6 4v1h-10l-2 1 3 2v2h-6l-5-10-4-15-4-25-1-20 2-10z" fill="#1D1B1A"/>
<path transform="translate(923,171)" d="m0 0 5 1 2 5v18l-3 24-5 21-4 10-2 2h-6l3-4-4-1h-8l5-4h2v-3h-11l-11 2-2-7-2-18 4-8 11-14 12-13 10-9z" fill="#1C1B1A"/>
<path transform="translate(951,1089)" d="m0 0h22l7 3 3 5v45l-3 5-7 3h-22l-6-3-3-4v-47l4-5z" fill="#F4EDE0"/>
<path transform="translate(749,1089)" d="m0 0h22l6 3 3 4v47l-4 5-5 2h-22l-7-3-3-5v-45l3-5z" fill="#F5F0E4"/>
<path transform="translate(585,647)" d="m0 0 4 4 3 5v2l-21 7-71 22-7 3-99 31-27 8-3-1-28 9h-3l1 3-12 4h-3l1-5 55-20 61-22 15-5 15-4 44-15 43-15z" fill="#4D5A69"/>
<path transform="translate(651,282)" d="m0 0h2l4 6-1 10-6 11-8 16-7 12-5 10-10 19-14 27-10 18-5 10-8 15-10 18-5 10-8 15-7 14h-2l-2-7h-2l1-5 21-42 10-19 24-47 17-33 14-27 15-28z" fill="#F6F6F6"/>
<path transform="translate(1085,536)" d="m0 0h29l9 3 10 5 5 5 2 6v20l-2 4-5-2-10-7-15-5h-15l-15 4-18 9-1-3v-11l2-10 4-8 9-7z" fill="#F3EFE4"/>
<path transform="translate(292,891)" d="m0 0h9v2h5v80l-1 1h-10v40l48-1 6-4 3-7 1-25-5-1v-74l1-3 4 2 4 8v95l-5 8-4 4-5 2h-51z" fill="#EDE0CC"/>
<path transform="translate(541,540)" d="m0 0 3 1 1 4 1 21-9 17-7 13-8 15-9 17-12 22-13 25-9 4-12 4-2-1 12-23 18-33 24-45 7-13 8-15z" fill="#73808F"/>
<path transform="translate(990,1089)" d="m0 0h30l7 3 3 4v24l-3 4h-2l6 21v5h-16l-5-18-1-6h-2v23l-1 1h-16l-1-1v-59z" fill="#F5EFE3"/>
<path transform="translate(787,1089)" d="m0 0h31l6 3 3 3v25l-4 6 6 23-1 1h-15l-3-7-4-16-2-1v23l-1 1h-14l-3-1v-59z" fill="#F5F0E4"/>
<path transform="translate(627,1089)" d="m0 0h18l7 3 3 4v13h-16v-9h-6l1 7 9 11 2-4h16l-1 5-5 11 2 5 11 13v2h-15l-4-4-4 2-5 2h-16l-7-3-3-5v-20l3-5 5-3-5-7v-10l3-5z" fill="#EFE1CD"/>
<path transform="translate(710,1181)" d="m0 0h265l-4 2-31 7-6 1h-183l-29-6-12-3z" fill="#9A714A"/>
<path transform="translate(638,684)" d="m0 0h17v9l-4 38-2 21-9-1-16-6-11-7-12-12-2-4 1-9 7-6h12l7 4 7 10-3-12v-9l3-12z" fill="#E2C7B3"/>
<path transform="translate(751,909)" d="m0 0h54v1l-43 1 1 3v57l-1 5h13v27h26v11l-32 1-7 1 43 1v1h-54z" fill="#E6CAB5"/>
<path transform="translate(1078,765)" d="m0 0h11l10 4 9 7 4 5 7 11v5l-6-3 1 8-8-6-10-6-7-2-11 1-10 6-6 7-5 11-3 17v21l3 15 5 12 5 8-2 1h-9l-7-17-3-11-1-10v-23l2-17 5-15 7-13 9-10z" fill="#9AA7B6"/>
<path transform="translate(1158,522)" d="m0 0 6 2 27 14 16 8 21 11 16 8 19 10 23 11 13 7v4l-2 1h-9l-20-6-11-5-19-8-15-7-17-9-16-8-17-8-13-7-1-13z" fill="#818E9E"/>
<path transform="translate(530,765)" d="m0 0h8l8 3 8 6 9 12 5 11 4 13 2 12v25l-5 26-6 12h-10l8-16 4-18v-23l-4-17-5-10-8-8-8-4-10-1-9 3-7 4-9 8-1-2 2-7-5 3-2 1 1-6 7-12 8-8 8-5z" fill="#99A6B5"/>
<path transform="translate(1214,588)" d="m0 0 5 2 19 10 5 3-1 58v4l5 4v30l-7-1-6-2-1-2v-37l-21-18 1-5z" fill="#758291"/>
<path transform="translate(574,410)" d="m0 0 2 1-15 29-8 16-46 23-17 9-2-3v-17l-2-1 28-15 19-11v-8l23-13z" fill="#F4BA05"/>
<path transform="translate(905,1089)" d="m0 0h22l6 3 3 4v19h-17l-1-14-5-1v39h6v-17h17v21l-4 5-5 2h-22l-7-3-3-5v-45l3-5z" fill="#F5F1E5"/>
<path transform="translate(924,909)" d="m0 0h30v1l-16 1 1 1v63l9 1 1 1v37l-10 2 13 1v1h-28z" fill="#E5DAC9"/>
<path transform="translate(403,588)" d="m0 0 2 2 1 44 1 4-11 11-8 7-3 1 2 4v34l-12 4-3-1v-29l5-5h2l-1-3-1-59z" fill="#768392"/>
<path transform="translate(1083,787)" d="m0 0 10 1 12 6 8 7-1-7 2-1 4 3 2-2 5 15 3 17v20l-3 18-6 16-3 5-7 1h-10v-2l6-5 7-14 3-14v-22l-4-16-6-11-8-7-10-2-9 3-7 6-6 10-4 13-1 6v18l3 14 7 14 4 5 5 4-14 1v-3l-6-10-4-11-2-12v-21l3-17 7-14 9-8 6-3z" fill="#4E5A6A"/>
<path transform="translate(1070,660)" d="m0 0 36 12 53 18 19 5 57 21 48 17 16 6 1 4-4 1-11-4v-2l-27-9h-7l-77-24-24-8-13-4-16-5-38-12-25-8-3-2z" fill="#4D5969"/>
<path transform="translate(1154,345)" d="m0 0 11 1 6 1 32 11 10 6 10 10 9 16 7 14v12l-1 2-9-3-5-2h-9l-9 1v-34l2-5-9-2-25-9-15-4-6-3v-10z" fill="#F4B905"/>
<path transform="translate(719,808)" d="m0 0 2 3 4 24 1 2v-8l1-1h23v-2h10l1-2 4 18v7h-15l-73 2-5 1 1-10 3-13 2-1h8l2 1 16-2h9l-1 11-1 2h2l1-9 3-16z" fill="#DB6227"/>
<path transform="translate(667,581)" d="m0 0h1l1 14v15l-8 40-4 28-2-4-16-7-11-6-12-9-7-6-6-10-6-16 1-3 11 10 11 7 6 2h13l8-4 7-8 6-13 5-18z" fill="#6F4B2A"/>
<path transform="translate(615,974)" d="m0 0h28v23h-1v-22l-14 1v2h11l1 20 4 4h8l3-2 1-3 1-19h19v27l-6 10v2l-3 1h-38l-6-3-5-5-3-7z" fill="#E6CAB5"/>
<path transform="translate(813,910)" d="m0 0h17l-2 4v55l1 6 8 1v39l-9 1 12 1v-41h1v42h-28z" fill="#E6DBCA"/>
<path transform="translate(530,787)" d="m0 0 10 1 8 4 10 10 5 12 3 14v23l-4 18-6 12-3 4-10-1 6-7 6-12 3-10 1-7v-15l-3-15-7-14-5-6-8-4-7-1-9 3-5 5-6 9-4 12-1 5v26l4 15 5 10 4 5h-16l-6-15-3-13-1-6v-25l3-16 4-12h3l5-3 1 2-2 7 10-9 10-5z" fill="#4E5B6A"/>
<path transform="translate(544,904)" d="m0 0h12l2 4v70l10 1 1 3-1 32-1 1-10 1 15 1v1h-28z" fill="#E5DBCA"/>
<path transform="translate(745,488)" d="m0 0 4 4 4 5h3l1-4h2l12 17 1-7h2v2l4 2 15 12 7 5 4-1 5 23h-16l-15-4-18-8-16-10-2-2 2-31z" fill="#EC9217"/>
<path transform="translate(1037,1089)" d="m0 0h31l6 3 3 3v26l-5 5-2 1h-16v22l-1 1h-16l-1-1v-59z" fill="#F4EDE1"/>
<path transform="translate(446,709)" d="m0 0h5v32l-9 1-103 2 1-2 64-20z" fill="#4E5B6B"/>
<path transform="translate(1167,709)" d="m0 0 9 1 70 22 33 10 1 2-103-2-9-1z" fill="#4E5B6B"/>
<path transform="translate(1063,906)" d="m0 0h13l1 7v59l1 4 6 1v38l-8 1 12 1v1h-26v-111z" fill="#EDDFCC"/>
<path transform="translate(1042,569)" d="m0 0 2 3 3 10 4 6-1 5v13l4 8 7 6 12 5h29l-5 10-4 5h-19l-17-3-14-5-9-6-10-9-4-5 2-6 14-26z" fill="#EC9017"/>
<path transform="translate(537,803)" d="m0 0 6 1 4 5 5 13 1 6v26l-4 13-5 10-5 5-5-2-5-6-4-9-3-17v-12l3-16 6-12z" fill="#F2EDE2"/>
<path transform="translate(1196,624)" d="m0 0 7 6 10 9 8 7 13 11-1 37 2 1-7-1-35-12 2-1v-54z" fill="#A9B7C2"/>
<path transform="translate(1060,394)" d="m0 0 2 1 1 31-9 10-9 11-10 11-14 26-12 23-10 19-6 12 12 3h4l18-35 24-46 9-16h3l-1 5-12 23-12 22-17 32-11 20-4 1-16-5-8 6-3-1 15-28 14-27 4-7 1-4 6-9 19-37 12-22z" fill="#F0294C"/>
<path transform="translate(1077,803)" d="m0 0 6 1 5 5 4 6 3 9 1 6v26l-5 16-6 8-5 2-7-8-5-12-2-10v-26l4-14 5-8z" fill="#F1EDE2"/>
<path transform="translate(422,624)" d="m0 0 2 3 1 55-23 8-12 4-4-1v-32l-1-4 8-7 10-9 12-11z" fill="#A9B7C2"/>
<path transform="translate(295,974)" d="m0 0h13l8 1v25l14-1 2-3 1-20 20 1v25l-4 8-6 4h-48z" fill="#E6CAB5"/>
<path transform="translate(1090,409)" d="m0 0 9 3 54 23 49 21-1 4-5 2-10-3 14 7-5 1-24-11-53-26-15-7-5 1-6 3 20 10 19 10 58 29 6-1 3-1 3 3-5 3-6 1-80-40-23-11-4 1-7 7-2-1 13-24z" fill="#EF284B"/>
<path transform="translate(890,760)" d="m0 0h1l1 86 3-1 31-1 3 1 1 10v32h-40z" fill="#CE5626"/>
<path transform="translate(895,448)" d="m0 0 1 2-12 23-8 11-11 13-12 11-14 9-13 6-5 1-13-17-2-5 20-6 17-8 19-12 14-11 14-12z" fill="#E3C8B4"/>
<path transform="translate(1283,897)" d="m0 0h13v100h23v20h-46v-1l13-2h30v-13h-24v-22l-13-1v-79l-2-1z" fill="#F4EEE2"/>
<path transform="translate(1185,1080)" d="m0 0h52l-6 7-9 9-8 7-15 13-15 12-15 11h-2l3-12 13-44z" fill="#F3B706"/>
<path transform="translate(809,576)" d="m0 0h5l2 16 2 19 1 18v39l-1 13-3 2-5-1-8-12-3-4-6 1-4 2 1-6 7-10 4-10 2-11v-33l-3-17v-4l-4-1z" fill="#E2C8B4"/>
<path transform="translate(781,760)" d="m0 0h1l1 89 8-2h29l1 2v38h-40z" fill="#CE5526"/>
<path transform="translate(880,516)" d="m0 0 12 1h32l15-1 8 8 11 1-4 8-7 5-9 1-38-7h-7l-5 8-2 5 1 5 12 5 21 7 9 1 1-3-8-1-8-2v-1l10 1 9 1-1 4-3 4-7-1-30-9-10-6-6-5-6-8 1-6z" fill="#EF284B"/>
<path transform="translate(498,743)" d="m0 0h100l7 6v1h-257l-18-1-2-1v-2l3-1 61-1z" fill="#96A3AF"/>
<path transform="translate(943,397)" d="m0 0h2l14 26 14 25-2 6-10 18-3 1-18-8-6-4 3-26z" fill="#F3EFE4"/>
<path transform="translate(1198,977)" d="m0 0h14l4 1v4h18v-4h18l1 1 4 27 1 8h-19l-2-9-1-11-22 1-2 19h-20l1-12 4-24z" fill="#E6CAB5"/>
<path transform="translate(1025,743)" d="m0 0h96l106 1 61 1 3 1v2l-10 2h-261l4-6z" fill="#95A2AE"/>
<path transform="translate(1326,979)" d="m0 0h21l1 17 2 3h11l2-3 1-17h20v24l-5 8-6 3h-37l-6-4-3-5-1-4z" fill="#E6CAB5"/>
<path transform="translate(370,978)" d="m0 0h20l1 1 1 19 3 2h9l3-3 1-18h11l9 1v21l-3 8-5 4-3 1h-37l-6-4-4-8z" fill="#E6CAB5"/>
<path transform="translate(834,1089)" d="m0 0h33l1 1v10h-17v13h15l1 1v9l-1 1h-15v15h16l1 1v9l-1 1h-29l-4-1z" fill="#F4EFE2"/>
<path transform="translate(788,393)" d="m0 0h7l4 5v23l2 2 1-7v-18l4-5h7l8 4-1 3h-2l3 12v13l-3 9-7 4-3 1h-15l-9-4-3-5-1-5v-12l2-11 1-2-3-1 5-5z" fill="#DB0230"/>
<path transform="translate(1081,1181)" d="m0 0h46l24 1-4 3-30 13-17 17-7 8-11 11h-1z" fill="#AC0432"/>
<path transform="translate(558,1181)" d="m0 0h44l1 1-1 52-7-6-16-17-7-7-4-5-24-11-12-5v-1z" fill="#9C0632"/>
<path transform="translate(386,524)" d="m0 0h1l1 14-2 4-33 17-34 17-20 9-1-1v-13l17-10 26-14 23-13 17-9z" fill="#ED9415"/>
<path transform="translate(1108,444)" d="m0 0 16 8 3 3-14 7-7 7-4 10v8l6 25v9l-12-1h-11l-12 3h-3v-7l14-27 10-19 12-23z" fill="#EA9C0D"/>
<path transform="translate(1163,483)" d="m0 0 8 5 29 16 24 13 10 6v2h-2l1 3v11l1 3-5-2-39-20-19-10-14-8z" fill="#EB9F0C"/>
<path transform="translate(448,1081)" d="m0 0h49l16 54h-3l-13-10-16-13-10-9-8-7-15-14z" fill="#EC9017"/>
<path transform="translate(430,770)" d="m0 0h9l6 4 8 9 8 16 3 11 1 9v24l-3 16-5-2-3-2 2-18v-10l-2-14-4-10-9-10-12-6-8 1-9 5-8 8-3-3-1-5 5-8 9-8 9-5z" fill="#818E9E"/>
<path transform="translate(850,271)" d="m0 0h8l8 5 5 8v18l-3 6-4 4-1 3-11 3-16 1 12 6 6 1h10l12-3 3-3 3-6 3-2h12l1-10h1v13l-3 12-7 12h-2l-1-10-7 8-7 5-7 2h-10l-9-2-5 2-2-10-6-14v-3l21-3 8-3 3-4 2-5v-11l-3-6-5-5-2-1h-11l-5 4-3 3 1-6 6-7z" fill="#F4BA05"/>
<path transform="translate(432,802)" d="m0 0 7 1 4 6 3 9 1 6v20l-4 16-7 10-4 1-6-6-4-9-2-11v-18l4-15 4-6z" fill="#F9F9F9"/>
<path transform="translate(1181,802)" d="m0 0 7 1 6 7 4 12v27l-2 8-5 10-5 4-4-2-4-5-5-14-1-3v-25l4-13 4-6z" fill="#FAFAFA"/>
<path transform="translate(937,843)" d="m0 0h37l3 3 14 31v2h-40l-14-33z" fill="#D75626"/>
<path transform="translate(1300,619)" d="m0 0 5 2 6 1 5-3h2v12l-6 61-2 17-1 14-6-2-6-3 1-12 1-25z" fill="#EEEBE1"/>
<path transform="translate(537,482)" d="m0 0h2l-2 5-7 14-27 15-48 26-6 3-3-1 1-1-1-7-3-4v-2l38-19 19-10 28-14z" fill="#909CAA"/>
<path transform="translate(1044,774)" d="m0 0h5l2 6-6 9-6 15-3 13-1 8v23l3 17 6 16 2 6h-8l-6-5-1-5-6-16-4-18-1-9v-10l2-14 5-14 7-12z" fill="#4E5B6B"/>
<path transform="translate(921,569)" d="m0 0h1l1 17 6 25 6 17 10 19 11 29 16 48 4 14h-10l-3-8-12-37-11-30-10-24-7-17-3-15-1-18 1-16z" fill="#E6CAB5"/>
<path transform="translate(570,774)" d="m0 0 6 1 8 8 8 14 4 10 2 10v25l-4 18-7 19-3 6h5v1h-15l1-5 5-13 3-14 1-8v-19l-3-18-5-15-7-13-2-4z" fill="#4F5C6B"/>
<path transform="translate(367,896)" d="m0 0h18v1l-5 1 1 80h-11l1 24 4 8 5 3h37l5-1-1 5-3 1h-38l-8-5-5-8z" fill="#EEE2CF"/>
<path transform="translate(1176,682)" d="m0 0 24 7 36 12 29 10 26 10 8 6 5 6v4l-6-1-41-15-14-5-8-3-44-16-16-6-1-4z" fill="#E0C7B4"/>
<path transform="translate(301,619)" d="m0 0 5 2 5 1 4-2h3l1 50 1 26 2 22-10 5h-2l-9-90z" fill="#F5F0E5"/>
<path transform="translate(441,682)" d="m0 0h2l2 8-10 4-14 5-22 8-14 5-8 3-11 4-10 4-17 6-22 8h-3l2-6 7-7 14-7 34-12 36-12z" fill="#DDC4B2"/>
<path transform="translate(522,511)" d="m0 0h2l-2 6-6 12-16 8-23 12-22 12-30 16h-3l-1-13 27-14 22-12 37-19z" fill="#3C4754"/>
<path transform="translate(955,314)" d="m0 0 3 3 3 10 5 4 12 23 12 22 11 21-2 5-6 11-3-3-13-24-14-27-11-20 1-13z" fill="#3C4754"/>
<path transform="translate(525,796)" d="m0 0h9l6 4-4 2-5 3-6 12-3 13v25h2l1 8h-2l5 13 6 8h-10l-8-6-6-10-4-12-1-5v-21l3-12 4-9 6-8 5-4z" fill="#4E5B6A"/>
<path transform="translate(1084,796)" d="m0 0h10l8 6 6 9 4 10 2 11v17l-4 16-5 10-5 6-7 4h-8l-1-2 5-5 6-11 2-14v-21l-3-14-4-9-5-6-6-2v-2z" fill="#4E5B6B"/>
<path transform="translate(675,1089)" d="m0 0h23l2 5 4 23 1 4-4 1h-6v4h-2l-1-6-1 30-16-1z" fill="#F4EFE2"/>
<path transform="translate(470,772)" d="m0 0h14l12 7-6 15-2 9v49l3 16 3 8v4l-5-1-12-5-6-5 1-7 4-6 3-10 1-7v-13l-3-21-6-21 1-2 3 2-5-8z" fill="#818E9E"/>
<path transform="translate(1135,772)" d="m0 0h13l1 3-6 10h2l1-3 2 1-6 21-3 19v18l3 13 6 10-1 6-10 6-10 4h-2l1-7 2-6 3-17v-41l-3-17-5-11 2-4z" fill="#828F9E"/>
<path transform="translate(730,700)" d="m0 0h15l23 2 2 1v19l-1 12h-14l-26-3v-27z" fill="#FAFAFA"/>
<path transform="translate(914,482)" d="m0 0 7 1 26 13-2 5-5 4-4 6-3 2-7 1h-35l-3-1 1-6 7-12 7-7 8-5z" fill="#997049"/>
<path transform="translate(670,366)" d="m0 0 3 1 6 16 2 2 1-1v-9l2-4h7l5 10-1 4-5 9 10-2-2 11-1 5v11l8-10 1 3 1 13 5 14 2 4 4-11h1l4 22 3 10v3l-4-2-11-9-10-10-3-4-9-35-13-20-4-8-2-7z" fill="#EC9216"/>
<path transform="translate(1086,600)" d="m0 0h19l30 3 1 5-4 10-7 9-11 7-5 1 7-12 4-5-4 1h-11l-23-5-6-2 9 7v1l-9-1-14-7 2-5 6-4z" fill="#E2C8B4"/>
<path transform="translate(579,469)" d="m0 0 3 1 1 4v22l-13 25-12 22-11 21h-2l-1-21-2-1 1-5 11-21 10-19z" fill="#808D9D"/>
<path transform="translate(873,273)" d="m0 0 6 2 12-1 4-1 8 8-1 2-11-1 8 12-1 19h-13l-4 4-3 6-8 3-6 1h-10l-8-2-10-5-1-2 17-1 11-2 1-4h2l1-2 6-2 3-6 1-4v-12l-4-10z" fill="#EDA806"/>
<path transform="translate(832,845)" d="m0 0 35 1 3 3 9 29v1h-38l-9-29z" fill="#D75626"/>
<path transform="translate(619,786)" d="m0 0h2l8 16 3 9 3 14v25l-2 13-4 14-6 11-5 1z" fill="#9BA8B7"/>
<path transform="translate(809,519)" d="m0 0 5 5 4 6 3 9 9 21 4 8v23l-4 39-4 29v14l-2 7h-1v-57l-2-32-7-46z" fill="#E0C6B3"/>
<path transform="translate(686,493)" d="m0 0h11l-6 7-17 17-8 7-24 24-7 8-14 14-2-4v-7l-5 4v-3l14-15 7-8 8-8 7-8 13-12 7-7 10-8z" fill="#E5C9B4"/>
<path transform="translate(975,1181)" d="m0 0h95v11h-41l-95-1v-1l29-6z" fill="#704C2B"/>
<path transform="translate(546,484)" d="m0 0h3l3 11-14 26-10 18-7 14-12 22-18 34-8 14-2 1-3-3 1-5 23-46 10-19 16-32 10-19z" fill="#A6B3BE"/>
<path transform="translate(779,1096)" d="m0 0h1v47l-4 5-5 2h-22l-7-3-3-5v-45h1l1 29 3-2 11 2 1-26h6l1 1v25l13 1 2 1z" fill="#EEE0CB"/>
<path transform="translate(653,302)" d="m0 0 1 2-4 17-17 33-12 22-13 25-12 22-13 25-6 11-7 12-7 14-8 14-1-2 1-5h-2l2-6 9-16 5-10 10-18 5-10 8-15 10-18 8-16 15-28 4-8 20-38z" fill="#828F9E"/>
<path transform="translate(601,377)" d="m0 0 1 2h2l1 10 1 4-10 18-5 10-8 15-10 18-5 10-8 15-7 14h-2l-2-7h-2l1-5 21-42 10-19z" fill="#CFD4D8"/>
<path transform="translate(892,388)" d="m0 0v3l-7 11-9 8-13 6-6 18-6 8-5 5-1-10-7 10-13-1-3-3 7-14 2-5 8-9 2-3 24-6 12-5 8-6z" fill="#E5C9B4"/>
<path transform="translate(919,162)" d="m0 0h9l4 2 4 8 1 6v10l-2 23-5 24-5 20-4 12-3 1h-10l-3-6v-9l2-6 4-1 3 2-3 3h5l4-8 6-24 3-24v-18l-2-5-6 1-10 8-4 3-1-7 12-12-9 5h-2v-3z" fill="#D34F26"/>
<path transform="translate(709,390)" d="m0 0 8 6 10 7 20 6 13 3 7 9 5 7 4 10 2 3-1 4-1 1h-14l-6-9-1 10-5-4-6-9-4-10-3-8-15-8-5-4-8-12z" fill="#E5C9B4"/>
<path transform="translate(1179,770)" d="m0 0h7l9 3-1 3v10l-12 4-10 9-3 5-4 9-2 8v22l1 5v7l-5 4h-2l-3-14v-28l2-13 6-15 6-9 5-6z" fill="#99A6B5"/>
<path transform="translate(1190,795)" d="m0 0 8 1 7 6 7 14 2 9v19l-3 12-6 11-6 5-5 2-6-1 6-8 3-8 1-37-4-12-5-6-5-2 1-3z" fill="#4D5968"/>
<path transform="translate(424,795)" d="m0 0 8 1 3 2v2l-7 3-6 12 1 4-2 8v18l1 8-1 1 4 11 3 5 3 3-7 1-7-4-6-7-5-13-1-4v-23l4-13 6-9 6-5z" fill="#4C5867"/>
<path transform="translate(1e3 976)" d="m0 0 20 1v26h26v11h-47v-37z" fill="#E6CAB5"/>
<path transform="translate(1271,978)" d="m0 0h15l6 1v22h24v13h-45z" fill="#E6CAB5"/>
<path transform="translate(750,446)" d="m0 0h4v2l7-1 8 7 9 7 5 3-5 4-9 1-31-1 2 9-6-3-8-6-3-10v-8l2-2z" fill="#F5EFE0"/>
<path transform="translate(934,361)" d="m0 0m-21 1 6 2 1 1-1 16 1 3 5-10 4-10h3l-3 14-4 9-11 17-3 8-6 20-11 8-11 11-4 2 2-17 2-4 4 11 6-15 1-4 1-15 5 5 4 5v-9l-3-15 1-3 9 3-6-11 1-5 5-11z" fill="#EC9316"/>
<path transform="translate(951,1089)" d="m0 0h22l7 3 2 2v9l-2-3-3-1h-9l-8 2-1 38h-15v4h-2v-47l4-5z" fill="#F5F0E4"/>
<path transform="translate(1133,335)" d="m0 0 10 2 23 8-1 2-7-1-4-1v12l13 5-1 51-3 2h-9l-9-1 1-5 7-17 2-9v-8l-5-13-9-15-8-11z" fill="#EC9017"/>
<path transform="translate(751,909)" d="m0 0h54v1l-43 1 1 3v57l-1 5h-8v38h15v1l-7 1 43 1v1h-54z" fill="#E6DAC8"/>
<path transform="translate(846,278)" d="m0 0h11l6 4 4 6 1 3v11l-4 8-6 4-8 2h-6l-8-3-1-1v-19l2-8h2l4-5z" fill="#212223"/>
<path transform="translate(702,314)" d="m0 0 16 1 9 9 11 2h9l9-2 11-5-1 6-5 12-1 7-6-2-8 2h-11l-9-4-8-7-3-4-1 10-3-1-8-16z" fill="#F4BA05"/>
<path transform="translate(1e3 908)" d="m0 0h12l-1 2v66h13v1h-20l-1 37h15v1l-7 1 42 1v-18h1v19h-54z" fill="#ECE0CD"/>
<path transform="translate(515,904)" d="m0 0h18v113h-24v-1l20-2 1-35h-9v-74h-6z" fill="#FCFCFC"/>
<path transform="translate(702,529)" d="m0 0h2l1 76v36l-2 32-2 1-4-46-3-39-1-6v-10z" fill="#E3E0D9"/>
<path transform="translate(1094,977)" d="m0 0h8l3 9 1-8h19v36h-23l-4-16z" fill="#E6CAB6"/>
<path transform="translate(349,899)" d="m0 0 4 2 4 8v95l-5 8-4 4-3 1h-47v-1l16-2 29-1 6-4 3-7 1-25-5-1v-74z" fill="#F7F4F2"/>
<path transform="translate(1319,1049)" d="m0 0h13l-4 4-5 3h-337v-1l157-1 132-4z" fill="#EEAA05"/>
<path transform="translate(973,666)" d="m0 0 9 1 9 3 6 1v12l-5 28-6 3h-6l-7-24-4-13 1-3 6-3-5 2h-3l-1-5z" fill="#99A6B5"/>
<path transform="translate(513,529)" d="m0 0h2l-2 5-10 20-9 7-13 12-8 7-3 1-1-2-1-24 4-4 32-17z" fill="#9CA9B8"/>
<path transform="translate(576,633)" d="m0 0 3 1 4 9-38 13-8 3-41 14-1-2 6-11 19-7 51-18z" fill="#DEC5B2"/>
<path transform="translate(718,185)" d="m0 0 4 1 10 8 14 12 3 3-1 12-4 10-6 12v4l-6 4-5 5-6 4-2-1-1-18-1-6-1-4 1-7v-10l3-11 5 5 4 11 1 10 2 4h6l4-9 2-8v-6l-11-11-13-10z" fill="#DB6326"/>
<path transform="translate(1149,773)" d="m0 0 6 3 4 5-7 12-5 15-2 12v22l3 15 5 14 6 10v3l-32 1-2-2v-3l18-8 4-4-1-5-6-12-2-10v-18l3-19 6-21-4 2 2-6z" fill="#4D5A69"/>
<path transform="translate(897,178)" d="m0 0 1 2-7 8-9 9-8 7-15 15v7l4 10 1 10-2-2-4-1h-41l-2-3 7-6 3-1-2 7 15-10 9-2-1 7 12-1-5-15-1-11 10-9 5-4 2 1h1l19-13z" fill="#EC9117"/>
<path transform="translate(550,456)" d="m0 0h2l-2 5-5 9-52 26-19 10-26 13-1-2 2-6 15-8 16-8 4-3v-2l22-11 19-10z" fill="#F2EDDE"/>
<path transform="translate(1167,362)" d="m0 0 9 2 8 3-1 48-1 2-17-1-2-2 2-1 1-50z" fill="#EB9D0D"/>
<path transform="translate(468,553)" d="m0 0 2 1-1 5 1 23-8 8-16 14-3-3-1-32 4-4z" fill="#929EAC"/>
<path transform="translate(398,553)" d="m0 0 3 1v2l5 3 1 5-7 3-13 4-16 4-11 6-1 5 2 2-12 4-10 4-8 2h-9l-3-3 4-4 38-19 17-9 17-8z" fill="#687483"/>
<path transform="translate(414,899)" d="m0 0h18v104l-4 8-5 5-4-1 2-1 5-9 1-4 1-22h-5l-1-78-8-1z" fill="#EFF0F1"/>
<path transform="translate(1086,555)" d="m0 0h16l18 3 16 5 3 2 1 10-2 4-5-2-10-7-15-5h-15l-15 4-18 9-1-3v-11l5-2 8-4z" fill="#E3C8B4"/>
<path transform="translate(1221,554)" d="m0 0 18 8 24 13 23 11 13 7v4l-2 1h-9l-20-6-6-3-2-3-1-5-13-7-19-4-13-4-2-2 1-5z" fill="#697583"/>
<path transform="translate(856,443)" d="m0 0h7l9 1h6l1 1v9l-11 10-3 1v-2l-3 1-21 1h-20l-2-2 12-8 6-7h2l1-2v2h9l2-4z" fill="#F5F1E5"/>
<path transform="translate(1012,624)" d="m0 0 8 6 13 10 17 9 3 2-17 8-17 4h-11l2-4v-31z" fill="#613C1D"/>
<path transform="translate(708,859)" d="m0 0h22l2 5 2 10v5h39v8h-39l-3-14v-6h-24v8l-3 12h-39v-8h39l2-14z" fill="#EEE4DC"/>
<path transform="translate(1153,555)" d="m0 0 26 13v2h-2v31l-3 4-12-11-8-7-4-3 2-11z" fill="#929EAC"/>
<path transform="translate(1224,756)" d="m0 0h10l1 3 4 44v12l-3 2h-5v-5l3-2v-8l-5-30v29l-2-2-5-12-9-12-9-6-5-3 1-2z" fill="#DBC3B2"/>
<path transform="translate(743,278)" d="m0 0h10l6 4 3 3 2 6v12l-4 8-4 2 1 3-9-1-10-3-4-6-1-3v-12l3-7h1l2 6h9v-6l-3-2h-6z" fill="#1E1F1F"/>
<path transform="translate(745,540)" d="m0 0 5 1 23 11 19 5 19 1 1 6-14 4h-18l-12-3-13-7-3-2-1 3h-2v2h-4l-2-3v-9z" fill="#F1ECE0"/>
<path transform="translate(1047,604)" d="m0 0h2l5 10 7 6 12 5h29l-5 10-4 5h-19l-17-3-12-4 1-4z" fill="#EA9C0D"/>
<path transform="translate(512,626)" d="m0 0v3l-16 31-9 16-20 7-2-1 12-23 12-22 3-6 5 4 5-1 6-4z" fill="#4E5B6A"/>
<path transform="translate(385,756)" d="m0 0h9l24 8 2 2-13 8-7 8-8 16-2 2v-28l-3 15-3 24 4 2v4h-6l-2-2v-15l4-42z" fill="#DFC6B3"/>
<path transform="translate(604,422)" d="m0 0 4 1 1 2v19l-3 9-12 23-10 18-2 1v-25h-2l1-5 12-22z" fill="#909CAA"/>
<path transform="translate(795,194)" d="m0 0h12l34 3 5 1-2 4h-3v2l-68 3h-12l-3-3-4-6 25-3z" fill="#DA5F27"/>
<path transform="translate(404,640)" d="m0 0 2 3v44l-1 2-15 5-4-1v-32l-1-4 8-7 10-9z" fill="#9CA9B8"/>
<path transform="translate(1111,358)" d="m0 0 7 7 8 2 1-2 2 4v10l-8 16-10 18-4 1-12-6 2-5 14-26 1-3v-10z" fill="#A7B5C0"/>
<path transform="translate(1041,697)" d="m0 0h2l-2 5-9 14-10 13-9 10h-25l-2-8v-4l17-6 20-11 16-11h2z" fill="#DD7421"/>
<path transform="translate(1214,640)" d="m0 0 7 6 13 11-1 37 2 1-7-1-15-5 1-2-1-44z" fill="#9CA9B8"/>
<path transform="translate(426,500)" d="m0 0h3l1 19-25 13-17 9-2-1 1-4-1-11-4-1 19-10 23-13z" fill="#EB9F0C"/>
<path transform="translate(895,448)" d="m0 0 1 2-12 23-8 11-11 13-12 11-14 9-13 6-5 1-12-16 1-2 11 10 3 1 14-8 17-12 14-12 1-2-12-2 2-4 16-12 14-12z" fill="#F0ECE1"/>
<path transform="translate(1186,793)" d="m0 0h11l8 5 6 9 4 12 1 6v19l-4 16-6 10-9 6h-11l-9-6-6-9-4-12-1-6v-17l4-16 7-11zm4 2-6 3v2l6 3 4 5 5 14h-2l-1-7-4-8-6-5h-5l-4 5-4 11-1 4v25l4 12 4 8 4 4 5-2 4-5 4-9-3 10-6 8 6 1 8-4 6-8 4-9 2-9v-19l-3-12-6-11-7-6z" fill="#1D1D1E"/>
<path transform="translate(468,773)" d="m0 0h2l6 12-4-1 6 21 3 21v13l-3 14-4 8-2 3v5l9 6 13 5v2h-19l-14-1 2-5 6-13 4-15 1-9v-16l-2-14-5-15-6-11-1-4z" fill="#4D5A6A"/>
<path transform="translate(895,1097)" d="m0 0h1l1 40 3-2 9 1 2 1 1-37h1v39h6v-17h17v21l-4 5-5 2h-22l-7-3-3-5z" fill="#EDDECA"/>
<path transform="translate(901,450)" d="m0 0 5 2 18 12 19 11 12 5-1 5-4 7-5-2-50-25 2-6z" fill="#EFEBE0"/>
<path transform="translate(422,793)" d="m0 0h11l6 4 7 8 5 12 2 10v15l-4 16-6 10-8 7-3 1h-10l-7-4-6-8-4-9-2-9v-23l3-12 6-11 7-6zm2 2-6 3-7 8-5 13-1 4v23l4 13 6 9 6 5 8 1 2-2-5-5-4-9-1-4 1-1 1 6 5 8 4 4 4-1 7-10 4-16v-20l-3-12-4-8-3-2h-5l-7 8-3 7 3-9 3-5 7-3v-2l-6-3z" fill="#1C1C1D"/>
<path transform="translate(627,1089)" d="m0 0h18l7 3 3 4v13h-16v-9h-6l1 7 8 10-1 2-10-1-9-1-1-5-4-5v-10l3-5z" fill="#F4EDE0"/>
<path transform="translate(928,976)" d="m0 0h20l1 1v37h-21z" fill="#E6CAB5"/>
<path transform="translate(426,787)" d="m0 0h6l10 6 9 10 5 14 1 10v10l-2 15-1 3 4 2 3 2-2 9-6 11-1 1h-16l-21-1v-1l8-1v-1l12-2 8-7 6-12 3-13v-15l-4-16-6-10-7-6-2-1-10-1 4-2z" fill="#3D4855"/>
<path transform="translate(1083,787)" d="m0 0h6l-2 6-9 3-7 6-6 10-4 13-1 6v18l3 14 7 14 4 5 5 4-14 1v-3l-6-10-4-11-2-12v-21l3-17 7-14 9-8 6-3z" fill="#3D4855"/>
<path transform="translate(817,976)" d="m0 0h20v38h-20z" fill="#E6CAB5"/>
<path transform="translate(501,554)" d="m0 0 1 2-15 29-8 17-10 19-2 2-1-1-1-36 14-13 8-7 10-9z" fill="#F3EFE4"/>
<path transform="translate(530,787)" d="m0 0 10 1 8 4 10 10 5 12 3 14v23l-4 18-6 12-3 4-10-1 6-7 6-12 3-10 1-7v-15l-3-15-7-14-5-6-8-4-4-1z" fill="#3D4956"/>
<path transform="translate(320,914)" d="m0 0h8l1 1v81l-1 1h-8z" fill="#1B1B1B"/>
<path transform="translate(705,977)" d="m0 0h20v37h-20z" fill="#E6CAB5"/>
<path transform="translate(1044,502)" d="m0 0 4 2 7 6 5 5 1 2v10l-5 5-8 4-3 1h-8l-9-3-1-3 14-25z" fill="#F2EEE3"/>
<path transform="translate(1119,905)" d="m0 0h9v112h-19v-1l15-2v-36l-5-1z" fill="#FCFCFC"/>
<path transform="translate(1154,977)" d="m0 0 20 1v36h-20z" fill="#E6CAB5"/>
<path transform="translate(733,489)" d="m0 0 2 1-15 15-1 6-4 71-1 6-3 1-2-12v-74z" fill="#EFE9DD"/>
<path transform="translate(1142,624)" d="m0 0 3 1 20 41 5 9-1 7-3 7h-2l-6-11-11-21-6-11-5-10-1-4z" fill="#697583"/>
<path transform="translate(1065,977)" d="m0 0h19v37h-19z" fill="#E6CAB5"/>
<path transform="translate(786,1191)" d="m0 0 135 1v1l-34 4-14 1h-62l-33-3-15-2v-1z" fill="#F8DB7A"/>
<path transform="translate(548,979)" d="m0 0h20l1 3-1 32h-20z" fill="#E6CAB5"/>
<path transform="translate(1128,637)" d="m0 0h2l14 27 10 18-2 1-20-7-9-16-8-16z" fill="#4E5B6A"/>
<path transform="translate(1052,799)" d="m0 0h1l1 5v9h2l-2 17v21l3 15 5 12 5 8-2 1h-9l-7-17-3-11-1-10v-23l2-17 3-8z" fill="#A4B2BD"/>
<path transform="translate(776,710)" d="m0 0h19l19 2v17h-22l-16-1-1-1v-16z" fill="#6F4B2A"/>
<path transform="translate(849,976)" d="m0 0h17l3 7 7 31h-19l-8-35z" fill="#E6CAB5"/>
<path transform="translate(1108,444)" d="m0 0 16 8 3 3-14 7-7 7-4 10v8l6 25v9l-12-1-2-2h3v-45l-1-6 11-22z" fill="#EDA707"/>
<path transform="translate(976,335)" d="m0 0 9 3 16 8 5 8 2 10 2 4v11l-4 9h-2l-13-25-12-22z" fill="#EDE9E0"/>
<path transform="translate(960,977)" d="m0 0h18l2 5 7 28v4h-19z" fill="#E6CAB5"/>
<path transform="translate(784,306)" d="m0 0h4v9l4-1h10l10 5 11 10 3 5-11-3h-22l-17 4-3-1 5-9 4-18z" fill="#F9DC79"/>
<path transform="translate(625,908)" d="m0 0 4 1 1 3v45l-1 3-3 1-8-7-3-7v-26l4-8z" fill="#EBE0CD"/>
<path transform="translate(1176,756)" d="m0 0h33l-2 2-20 5h-34l-26 3-11 5-9-9-5-3v-2z" fill="#F0EBDF"/>
<path transform="translate(301,619)" d="m0 0 5 2 7 1-1 2h-2l1 6 2 63 1 22 1 6-5 2-9-90z" fill="#DFC5B2"/>
<path transform="translate(445,979)" d="m0 0h12l7 1v34h-19z" fill="#E6CAB5"/>
<path transform="translate(1336,894)" d="m0 0 4 1-3 1-1 57-4 1-8-9-1-3v-33l4-8 7-6z" fill="#EDE0CD"/>
<path transform="translate(779,683)" d="m0 0 10 1 8 9v2h-18v10h-4v-7l-14-1-25-3v-1l-5-1 2-5 3-1 38-1z" fill="#FCFCFC"/>
<path transform="translate(799,380)" d="m0 0 6 1 13 3h11l12-2-2 5-4 8h-4l-1-2-19-1h-39l-1 4-4-1-6-11v-2l10 2h12z" fill="#EFECE4"/>
<path transform="translate(823,312)" d="m0 0 2 1 7 20v7l-20-4h-23l-16 3-4 1 1-9 6-18 5 1-2 11-5 9 19-4h22l10 3-8-9-10-7-2-2 2-2z" fill="#F3B706"/>
<path transform="translate(529,823)" d="m0 0 7 1 3 4 2 9v12l-3 12-3 3h-7l-3-1-3-15v-12l2-11z" fill="#FAFAFA"/>
<path transform="translate(1316,619)" d="m0 0h2v12l-6 61-2 17-1 14-6-2 2-1 1-29 2-68z" fill="#DFC5B2"/>
<path transform="translate(450,781)" d="m0 0 5 5 6 13 3 11 1 9v24l-3 16-5-2-3-2 2-18v-10l-2-14-4-10-2-2 1-5z" fill="#99A6B5"/>
<path transform="translate(1084,823)" d="m0 0h7l3 2 2 5v26l-2 5-4 3h-6l-3-3-3-9v-17l3-9z" fill="#FBFBFB"/>
<path transform="translate(567,800)" d="m0 0 2 1 3 9 2 12v25l-5 26-6 12h-10l8-16 4-18v-23l-1-5v-7z" fill="#A4B2BE"/>
<path transform="translate(933,518)" d="m0 0h8l6 6 11 1-4 8-7 5-9 1v-9h-33l-7-1-7-7 1-2h30z" fill="#DC0230"/>
<path transform="translate(413,757)" d="m0 0h104l-5 5-7 6-3 3-8-4-9-2-20-2h-34l-18-5z" fill="#F0EBDF"/>
<path transform="translate(1163,483)" d="m0 0 8 5 20 11v17l-4 2-22-11-8-5z" fill="#EEA906"/>
<path transform="translate(1007,399)" d="m0 0h1l1 19-8 5-6 3-34 64-9 17 1 5 1 2-4-2-3-5 2-7 13-23 14-26 12-22 14-26z" fill="#F0294B"/>
<path transform="translate(476,980)" d="m0 0h11l1 4 1-4h10l-1 14-3 20h-14l-5-31z" fill="#E6CAB5"/>
<path transform="translate(512,980)" d="m0 0h18v34h-18z" fill="#E6CAB5"/>
<path transform="translate(1098,572)" d="m0 0h11l7 2 7 3 8 6 4 5 2 4v12l-19-2-1-2v-12l-5-4-10-2-3-3-2-6z" fill="#F8F8F8"/>
<path transform="translate(537,482)" d="m0 0h2l-2 5-7 14-27 15-24 13-3 2h-3v-2h3v-2l11-8 10-9 8-5 1-7 22-11z" fill="#A6B3BF"/>
<path transform="translate(1158,544)" d="m0 0 6 2 28 15 6 3v14l-5-1-2-2-7-3-17-9-13-7-2 1v-5l4-5z" fill="#3C4755"/>
<path transform="translate(960,1100)" d="m0 0h5v40h10l6 1 1 4-5 4-4 1h-22l-6-3-2-4 1-4 5-1 10 1v-38z" fill="#EFE1CD"/>
<path transform="translate(1015,777)" d="m0 0h1v89l-4-1-8-16-2-6 6-1 3-8v-15l-2-15-3-7 1-7 6-12z" fill="#8A939F"/>
<path transform="translate(941,583)" d="m0 0 19 4 26 6 2 2v12l-2 2h-8l-13-5-11-7-10-9-3-3z" fill="#8D663E"/>
<path transform="translate(603,772)" d="m0 0 5 1 1 2-1 112-2 2-4-2z" fill="#8C95A0"/>
<path transform="translate(1037,1089)" d="m0 0h31l6 3 3 3v12l-3-1h-13l-1-5-7-1v8l-1-4h-14l1 4-2 2z" fill="#FBF9F7"/>
<path transform="translate(1115,467)" d="m0 0 1 3 2 20 7 30 3 10-5-2-10-5-6-33-1-3v-7l6-10z" fill="#E2C8B4"/>
<path transform="translate(1174,687)" d="m0 0 8 1 7 3 84 28 5 5 2 4-9-2-28-10-8-3-44-16-16-6z" fill="#EDE9DE"/>
<path transform="translate(585,647)" d="m0 0 4 4 1 3-40 13-25 8-15 5h-4l1-6 55-19z" fill="#3D4855"/>
<path transform="translate(979,361)" d="m0 0 4 2 18 34-2 5-6 11-3-3-7-13-4-16-1-6v-13z" fill="#99A6B5"/>
<path transform="translate(1022,541)" d="m0 0 15 5-9 19-7 13-9-6-5-4 2-5 12-21z" fill="#DEC5B2"/>
<path transform="translate(1181,802)" d="m0 0 7 1 6 7 1 5h-8l-4 6-1 10 10-4 1-2 2 1-4 6-10 11-5 3-4 1v-25l4-13 4-6z" fill="#F2EDE2"/>
<path transform="translate(432,802)" d="m0 0 7 1 4 6 3 9 1 6v20l-4 2-6-4-9-9-3-5v-3l2 1v2l4 1 6 2-2-12-3-4h-6l-3 1 2-6z" fill="#F0ECE1"/>
<path transform="translate(653,302)" d="m0 0 1 2-4 17-17 33-12 22-12 23-3-4-2 1 2-5 14-27 9-17 20-38z" fill="#919DAB"/>
<path transform="translate(1131,774)" d="m0 0h4l1 102-9 4h-2l1-7 2-6 3-17v-41l-3-17-5-11 2-4z" fill="#8D96A2"/>
<path transform="translate(429,618)" d="m0 0 4 1v60l-5 2h-4l-1-57z" fill="#E5C9B5"/>
<path transform="translate(1188,617)" d="m0 0 3 2v2l4 2 1 4-1 54-8-1-1-3v-58z" fill="#E4C9B4"/>
<path transform="translate(440,687)" d="m0 0h4l1 3-10 4-14 5-22 8-14 5-8 3-11 4-10 4-15 5h-2l2-5 2-3 48-16 43-15z" fill="#F1ECE1"/>
<path transform="translate(670,163)" d="m0 0h6l1 7-4 2-2 10 1 20 5 30 1 9-3 6-2-2-6-27-3-21v-20l2-9z" fill="#EC8E18"/>
<path transform="translate(692,760)" d="m0 0h54l1 1v5l-5-1-17 1-8-1-2 4-9 11-12-1 1-12-4 1v-6z" fill="#EC9017"/>
<path transform="translate(743,358)" d="m0 0 14 6 5 1h13l8-1 5 4 7 1 5 1v2l-11 6-4 1h-17l-11-4-3-2-3-5-8-8z" fill="#F0E4D0"/>
<path transform="translate(850,1124)" d="m0 0h1v15h16l1 1v9l-1 1h-29l-4-1v-14l1-4h11l3 1z" fill="#EEE0CC"/>
<path transform="translate(512,595)" d="m0 0 4 1 1 25-3 5-10 8-4 2-5-1-2-3 1-4 9-17 8-15z" fill="#6A7685"/>
<path transform="translate(1173,352)" d="m0 0 10 3 24 9 6 4 9 9v2l3 1-2 1-47-16-4-3z" fill="#F8DC79"/>
<path transform="translate(442,567)" d="m0 0 2 1-1 3 1 30 1 4-8 7-5 3-1-3-1-37 3-3z" fill="#8C95A1"/>
<path transform="translate(930,831)" d="m0 0 2 1 18 42 1 5h41v8h-41l-9-22-5-11-7-16z" fill="#F3EDE8"/>
<path transform="translate(877,521)" d="m0 0h3v5h2v-4l4 2 3 4 1 8-4 9 1 5 12 5 21 7 9 1 1-3-8-1-8-2v-1l10 1 9 1-1 4-3 4-7-1-30-9-10-6-6-5-6-8 1-6z" fill="#EE2348"/>
<path transform="translate(384,658)" d="m0 0 3 3v34l-12 4-3-1v-29z" fill="#8C95A0"/>
<path transform="translate(787,1089)" d="m0 0h31v2l-30 1v37l1-1h10l3 2 2-4v23l-1 1h-14l-3-1v-59z" fill="#EEDECC"/>
<path transform="translate(743,271)" d="m0 0h8l8 5 5 10 2 11v15l-3 2h-6l5-8 1-3v-12l-3-7-5-4-2-1h-10l-2 2 6 1 2 2-1 6-2 1h-7l-2-2-1-4-2 6v12l4 9-4-2-3-4-1-5v-17l3-6 7-6z" fill="#E2E2E2"/>
<path transform="translate(601,1201)" d="m0 0h1v33l-7-6-16-17-5-5v-2l24-2z" fill="#AD0432"/>
<path transform="translate(675,1095)" d="m0 0h1l1 27 2-1h8l4 4v25l-16-1z" fill="#EEE0CC"/>
<path transform="translate(508,559)" d="m0 0 3 1 2 8-15 28-12 22-4 6-4-3 1-5 23-46z" fill="#89929E"/>
<path transform="translate(698,1121)" d="m0 0 12 1 4 4-1 10-2 12-1 2h-12l-2-7-2-11 1-10z" fill="#EFE1CD"/>
<path transform="translate(753,228)" d="m0 0 7 1 12 7 6 4-2-4 1-3 9 7 1 3-3 1-28 1h-14l-5-1 4-9h14z" fill="#EC9117"/>
<path transform="translate(1041,318)" d="m0 0h8l10 4 8 7 4 8 1 4 5 2-1 9-8 18-10 17-7-2 2-6 12-21 3-9v-9l-3-7-7-8-10-4-10-1z" fill="#EBE7DD"/>
<path transform="translate(622,341)" d="m0 0 2 2 2 12-12 23-7 13h-2l-1-2v-10h-2l1-6 16-31z" fill="#F0ECE2"/>
<path transform="translate(966,282)" d="m0 0h2l15 28v2l-5-1-4-2h-9-3l-5-10v-2l-6 2h-5l-1-5 15-4z" fill="#F3F3F3"/>
<path transform="translate(821,833)" d="m0 0h7l13 44v2h38v8h-38l-7-22-5-18-1-7h-7z" fill="#F6EFEA"/>
<path transform="translate(1179,569)" d="m0 0 10 5 1 2-1 2-1 35-3 2-7-7-3-2 1-5 1-31z" fill="#8D96A1"/>
<path transform="translate(1135,424)" d="m0 0h38l23 1 3 2-7 2h-30l-8-1 17 7 16 8 14 6v3l-6-1-56-24z" fill="#EC264A"/>
<path transform="translate(806,393)" d="m0 0h7l8 4-1 3h-2l3 12v13h-1l-1-6-3 1h-13l-1-4v-18z" fill="#BF0332"/>
<path transform="translate(601,910)" d="m0 0 4 2 4 6v45l-3 6-6 5-3-1 3-2z" fill="#FBFBFB"/>
<path transform="translate(1158,522)" d="m0 0 6 2 27 14v2l-5 4-1 7-6-1-19-10-1-13z" fill="#8C98A6"/>
<path transform="translate(987,320)" d="m0 0h5l12 6 20 9 5 3-1 5-2 3-5-1-18-8-17-7-1-1 1-7z" fill="#838F9E"/>
<path transform="translate(1234,658)" d="m0 0 7 6 6 5v30l-7-1-6-2-1-2v-35z" fill="#828F9F"/>
<path transform="translate(523,767)" d="m0 0 2 1v21l-10 5-10 9-1-2 2-7-5 3-2 1 1-6 7-12 8-8z" fill="#748190"/>
<path transform="translate(750,446)" d="m0 0h4v2l7-1 7 6-2 4-1 1-40 1-2-1v-8l2-2z" fill="#FCFCFC"/>
<path transform="translate(954,705)" d="m0 0h2l9 28 1 4 10 1v1l-37-1 8-15z" fill="#653F1F"/>
<path transform="translate(732,1090)" d="m0 0h1v59l-1 1h-15v-24l1-2 6-1 7 2z" fill="#EEDFCB"/>
<path transform="translate(990,1089)" d="m0 0h30l7 3 2 2v10l-7-2h-9l-1-3h-6v6l-1-4-14-1-1 3z" fill="#FBF8F7"/>
<path transform="translate(1199,942)" d="m0 0 4 2 1 3v27l-1 3-5 1-6 36h19v1l-9 1 12 1 1-2v3h-27v-7l8-50z" fill="#E9DCC9"/>
<path transform="translate(1323,969)" d="m0 0h16l-3 2 1 7 2 1h-13l1 22 3 7 4 4 2 1h37l6-2-2 6-3 1h-37l-8-4-6-10z" fill="#EBDDC9"/>
<path transform="translate(1095,768)" d="m0 0 4 1 9 7 4 5 7 11v5l-6-3 1 8-8-6-10-6-3-2 1-18z" fill="#748190"/>
<path transform="translate(554,491)" d="m0 0 2 1-2 11-7 12-5 10-16 30-5 10-6-1 2-6 9-16 8-16 12-22 7-12z" fill="#73808E"/>
<path transform="translate(587,654)" d="m0 0h4l1 4-21 7-71 22-6 1 2-4 41-14 16-5z" fill="#88919C"/>
<path transform="translate(708,473)" d="m0 0h8l13 5 5 3-4 4-5 3-36-1 5-5 11-7z" fill="#EDE8DE"/>
<path transform="translate(498,743)" d="m0 0h100l7 6v1h-67l-5-1v-1l25-2 1-2h-61z" fill="#96A3B2"/>
<path transform="translate(1154,345)" d="m0 0 11 1 6 1 32 11 2 1 2 5-10-3-24-9v10l-4 1-15-5-1-1v-10z" fill="#F4BA05"/>
<path transform="translate(615,974)" d="m0 0h28v23h-1v-22l-14 1v2h-9l1 26 4 7 4 2h38l5-1-1 5-3 1h-38l-6-3-5-5-3-7z" fill="#E2D7C7"/>
<path transform="translate(385,756)" d="m0 0h9l9 4 1 4-10-1-3-1-2 14-4 25-1 10 4 2v4h-6l-2-2v-15l4-42z" fill="#E4D8C7"/>
<path transform="translate(745,540)" d="m0 0 5 1 23 11 3 2h-2l1 3 2 1v2h-8l-6-1-5 1-6-4-1 3h-2v2h-4l-2-3v-9z" fill="#EDE1CE"/>
<path transform="translate(856,443)" d="m0 0h7l9 1h6l1 1v9l-3 1h-40l-2-1 3-6h2l1-2v2h9l2-4z" fill="#FCFCFB"/>
<path transform="translate(1224,756)" d="m0 0h10l1 3 4 44v12l-3 2h-5v-5l3-2v-8l-6-36-1-4-6 2h-6l6-7z" fill="#E4D8C7"/>
<path transform="translate(1133,904)" d="m0 0h12l1 2v16h5v95h26v-23h1v24h-28v-95h-17z" fill="#E8D6C3"/>
<path transform="translate(854,359)" d="m0 0 2 1-7 8-10 6-6 2h-17l-10-4v-3l10-5 9 1h13l12-4z" fill="#EFE3CF"/>
<path transform="translate(579,469)" d="m0 0 3 1 1 4v22l-10 19h-2l-1-19-3-2 2-6z" fill="#8A939F"/>
<path transform="translate(1221,554)" d="m0 0 18 8 15 8v2l-2 1-2 3-4-2-19-4-13-4-2-2 1-5z" fill="#73808F"/>
<path transform="translate(788,393)" d="m0 0h7l4 5v18l-2 4-9 1-2-5 1-17h-2l-2 18h-1l-1 8h-1v-12l2-11 1-2-3-1 5-5z" fill="#C10332"/>
<path transform="translate(398,553)" d="m0 0 3 1v2l5 3 1 5-7 3-13 4-16 4-3 1-2-5 4-4 25-12z" fill="#748190"/>
<path transform="translate(1108,537)" d="m0 0h9l9 3 8 5 4 4 2 6v17h-1l-1-7-8-4-2-7-9-4-7-3-2-9z" fill="#F8F8F7"/>
<path transform="translate(821,787)" d="m0 0h13l2 2v22l-2 2h-13z" fill="#25211E"/>
<path transform="translate(659,714)" d="m0 0 2 4 5 21 3 8-2 12-3 11-8-8v-10z" fill="#6D4929"/>
<path transform="translate(1078,765)" d="m0 0h11l6 2-1 21h-15l-2-1v-19l-1-2z" fill="#818E9E"/>
<path transform="translate(530,765)" d="m0 0h8l4 2v20l-6 1h-11l-1-20 2-2z" fill="#828F9F"/>
<path transform="translate(394,649)" d="m0 0 2 3v38l1 2-7 2-4-1v-32l-1-4 8-7z" fill="#929EAC"/>
<path transform="translate(1225,650)" d="m0 0 8 6 1 3-1 35 2 1-7-1-5-2 1-41z" fill="#929EAC"/>
<path transform="translate(1085,488)" d="m0 0 3 1v29l-3 2-12 3h-3v-7l14-27z" fill="#EB8F17"/>
<path transform="translate(670,300)" d="m0 0 2 3v51l-3-1-3 7-2-3-1-17 2-19 4-18z" fill="#DB6327"/>
<path transform="translate(1139,467)" d="m0 0 4 2 2 2v9l-1 4v19l5 16 3 5 1 4v10l-3 6h-3l-2-5 1-2v-7l-3-9-3-6v-28z" fill="#F5F5F5"/>
<path transform="translate(1222,421)" d="m0 0h8l1 3-7 12-8 11-4 5-9-1-31-14-1-2 11 3 19 6h7l5-3 7-9 1-6h-7v-2z" fill="#1E1C1A"/>
<path transform="translate(1111,358)" d="m0 0 3 3 4 6v9l-10 23-1 6 3 9-5-1-10-5 2-5 14-26 1-3v-10z" fill="#CFD0D1"/>
<path transform="translate(572,767)" d="m0 0h20l4 2h-4v23l-2 3-7-12-7-7-6-1-4 2v-5z" fill="#748190"/>
<path transform="translate(913,1100)" d="m0 0h5l1 1v14h16l1 1v6h-17v17h-6z" fill="#E10935"/>
<path transform="translate(1027,767)" d="m0 0h20l5 3 1 6-1 2h-2l-1-3h-5l-9 9-6 10-2-3v-22l-4-1z" fill="#748190"/>
<path transform="translate(981,912)" d="m0 0 4 2 4 5 1 4v38l-4 8h-2l-1-3v-51z" fill="#EEEEF0"/>
<path transform="translate(1123,337)" d="m0 0 7 1 5 5 10 15 6 10v2l-10-1-3-1-10-18-5-10z" fill="#D60230"/>
<path transform="translate(1194,772)" d="m0 0 6 2 11 8 2 4h2l4 7-1 6-3 3-6-7-9-6-6-3-1-1v-9z" fill="#6A7684"/>
<path transform="translate(1379,895)" d="m0 0 4 2 4 6 1 3v30h-16v-1h7z" fill="#F7F8F8"/>
<path transform="translate(423,772)" d="m0 0 2 1 1 2v10l-5 3-9 5-8 8-3-3-1-5 5-8 9-8z" fill="#6A7684"/>
<path transform="translate(796,673)" d="m0 0 5 4 13 19 2 2-1 9-5-1-12-15-8-12 1-4z" fill="#6E4A2A"/>
<path transform="translate(1377,953)" d="m0 0 5 2 5 7 1 4v36l-4 9-5 5-4-1 3-3 5-9 1-25h-6l1-22z" fill="#F3F3F2"/>
<path transform="translate(648,341)" d="m0 0h1l2 20v7l-14 27-1-3 4-16v-15h-2l2-6z" fill="#4E5A6A"/>
<path transform="translate(930,303)" d="m0 0 2 2 3 12 2 15v22l-1 6-3-4-1-4h-3v-44z" fill="#DB6327"/>
<path transform="translate(1148,865)" d="m0 0 3 1 6 12 2 3v3l-32 1-2-2v-3l18-8 4-4z" fill="#4F5C6C"/>
<path transform="translate(812,1129)" d="m0 0 10 2 2-1 5 19-1 1h-15l-3-7-2-11z" fill="#EEE0CC"/>
<path transform="translate(951,1089)" d="m0 0h22l7 3 2 2v9l-2-3-3-1h-9l-3 1-8-2h-14l1-5 4-3z" fill="#FAF7F5"/>
<path transform="translate(704,878)" d="m0 0h1v7l-1 2h-39v-8z" fill="#F5EEE9"/>
<path transform="translate(572,924)" d="m0 0h8l2 2v29l-1 1h-9z" fill="#221F1D"/>
<path transform="translate(1070,660)" d="m0 0 45 15-2 1v4l-7-1-38-12-6-2v-2z" fill="#3F4A57"/>
<path transform="translate(1073,360)" d="m0 0h1l1 36-6-2-12-6 8-15 6-12z" fill="#748190"/>
<path transform="translate(413,757)" d="m0 0h44l-1 2 2 1 20 1 9 1 1 1 15 1 2 4-3 3-8-4-9-2-20-2h-34l-18-5z" fill="#E1C7B3"/>
<path transform="translate(976,335)" d="m0 0 9 3 2 2 2 5 8 16 11 21-2 6h-2l-13-25-12-22z" fill="#8F9BA9"/>
<path transform="translate(891,879)" d="m0 0h39v8h-39z" fill="#F7F0EB"/>
<path transform="translate(782,879)" d="m0 0h39v8h-39z" fill="#F7F0EB"/>
<path transform="translate(1096,653)" d="m0 0 8 2 14 5 6 11v2l-11-3-29-10v-1h7z" fill="#DAC2B1"/>
<path transform="translate(872,915)" d="m0 0 4 2 2 4v42l-3 6-3 3-2-1 1-1z" fill="#FAFAFA"/>
<path transform="translate(958,546)" d="m0 0 11 5h14l-3 3-8 1-7-1-8 14 1 3 14 3v1h-13l-10-5-2-5z" fill="#EC2549"/>
<path transform="translate(504,499)" d="m0 0 3 1-2 6-10 7-10 9-7 4-2-2-2-8 3-3z" fill="#99A6B5"/>
<path transform="translate(1187,745)" d="m0 0h101l3 1v2l-2 1h-31l-68-2z" fill="#CED2D6"/>
<path transform="translate(331,745)" d="m0 0h102l-4 2-69 2h-30l-2-1v-2z" fill="#CED2D6"/>
<path transform="translate(568,609)" d="m0 0h3l5 20-22 8h-2l1-4 14-23z" fill="#EBDFCC"/>
<path transform="translate(850,271)" d="m0 0h8l8 5 5 8v18l-3 6-4 4-2-1 3-4 2-5v-11l-3-6-5-5-2-1h-11l-5 4-3 3 1-6 6-7z" fill="#EDEEEE"/>
<path transform="translate(789,687)" d="m0 0 5 2 3 4v2h-18v10h-4v-7l-14-1-11-1-1-3-2-1 7-1 33-1v-2z" fill="#F3F1E8"/>
<path transform="translate(578,638)" d="m0 0h3l2 5-38 13-8 3-7 1 2-4 5-4z" fill="#F2ECE0"/>
<path transform="translate(1018,359)" d="m0 0 9 3 5 2h9l4-1-2 6-5 11-5-1-11-7-5-6z" fill="#EDA607"/>
<path transform="translate(952,927)" d="m0 0h9l1 1v28l-1 1h-9z" fill="#272524"/>
<path transform="translate(909,246)" d="m0 0 5 1-3 4h5l4-2 3 8-1 7-1 3-3 1h-10l-3-6v-9l2-6z" fill="#DA6027"/>
<path transform="translate(1232,379)" d="m0 0 5 5 8 15 2 6v13l-5 13-12 23-12 18-8 10-4 4-5 1-2-2 11-8 8-10 9-15 12-23 4-9 1-4v-8l-4-13-5-10-3-4z" fill="#A70432"/>
<path transform="translate(787,765)" d="m0 0h32l-5 5-9 8-2-1h-15l-1-3z" fill="#F9DC79"/>
<path transform="translate(841,928)" d="m0 0h9l1 1v27l-1 1h-9z" fill="#1F2022"/>
<path transform="translate(1041,697)" d="m0 0h2l-2 5-9 14-10 13-8 9h-12l34-34 3-5h2z" fill="#E2C7B3"/>
<path transform="translate(1220,994)" d="m0 0h16l2 11 1 9h18v1l-7 2h-15l-2-19h-16l-2 17-1 2h-19v-1l16-2 3-19z" fill="#F5EFE2"/>
<path transform="translate(371,669)" d="m0 0 2 3v26l1 2-6 2h-5v-24l7-8z" fill="#748190"/>
<path transform="translate(986,499)" d="m0 0 5 1 1 2-15 28-6 10-6-3 7-14z" fill="#AB0432"/>
<path transform="translate(988,671)" d="m0 0h9v12l-5 28-1 1h-5l2-1z" fill="#A6B4BF"/>
<path transform="translate(1247,670)" d="m0 0 8 6 1 1v25h-6l-5-2 1-2v-25z" fill="#758291"/>
<path transform="translate(1100,625)" d="m0 0 2 1-6 10-3 4h-19l-1-2h4l-1-11z" fill="#F4B706"/>
<path transform="translate(1176,756)" d="m0 0h33l-2 2-20 5h-34l-7 1h-13l-1-2 9-1 22-1-1-3z" fill="#D3BDAE"/>
<path transform="translate(768,703)" d="m0 0h2v19l-1 12h-14v-1h5v-24z" fill="#D9C1B0"/>
<path transform="translate(1059,620)" d="m0 0 6 2 8 3 19 1v1l-15 1v10l-4 1h-7l-9-2-1-2h3z" fill="#EDA607"/>
<path transform="translate(734,880)" d="m0 0h39v7h-39z" fill="#F9F5F2"/>
<path transform="translate(1007,437)" d="m0 0h2l-1 5-15 28-13 23-14 26-4 1-7-4 2-1 7 1 13-25 12-22 14-26z" fill="#EC2649"/>
<path transform="translate(1060,664)" d="m0 0 11 3 53 17-1 3-8-1-36-11-24-8 2-2z" fill="#89939E"/>
<path transform="translate(767,269)" d="m0 0 6 3 6 9 2 5 1-3 3 1 3 8 1 13-7 2-1 3-2-16-3-9h-3l-6-14z" fill="#F5BB05"/>
<path transform="translate(991,547)" d="m0 0 12 2 2 1-2 6-6 9-6 1-7-2-1-4 6-11z" fill="#ED2549"/>
<path transform="translate(696,764)" d="m0 0h22l-3 5-9 11-12-1 1-10z" fill="#F9DC79"/>
<path transform="translate(671,911)" d="m0 0 5 2 4 7v27h-12l4-1z" fill="#FAFAFA"/>
<path transform="translate(1074,767)" d="m0 0 4 1-1 19 2 1-11 7-2-2-1-16-4 3 2-4 9-8z" fill="#919DAB"/>
<path transform="translate(404,565)" d="m0 0 3 1-16 8-22 10-7 3-4-1 2-6 13-7 22-5z" fill="#808D9D"/>
<path transform="translate(501,554)" d="m0 0 1 2-15 29-3 7-3-4-1-15 9-9 11-9z" fill="#F7F7F7"/>
<path transform="translate(1214,566)" d="m0 0 11 2 15 4 8 2 12 7 2 7-10-3-14-6-15-7-9-5z" fill="#818E9E"/>
<path transform="translate(512,626)" d="m0 0v3l-16 31-3-3-1-22-1-2 2-2 4 4 5-1 6-4z" fill="#3D4855"/>
<path transform="translate(541,767)" d="m0 0 5 1 8 6-1 18-3 3-7-5-3-1v-2h2z" fill="#909CAB"/>
<path transform="translate(730,700)" d="m0 0h15l23 2-1 3-7 4-29-2-1 17h-1v-20z" fill="#F2EEE3"/>
<path transform="translate(901,450)" d="m0 0 5 2 9 6-1 2v6l-5 5-6-2-8-4 2-6z" fill="#E8DDCB"/>
<path transform="translate(1082,1210)" d="m0 0 20 1-2 4-7 8-10 10h-1z" fill="#C10331"/>
<path transform="translate(513,529)" d="m0 0h2l-2 5-10 20-5 3-2-4-1-10-1-4z" fill="#A7B4BF"/>
<path transform="translate(1157,805)" d="m0 0h1l2 16v37l-3 1-3-14v-28l2-9z" fill="#A6B4BF"/>
<path transform="translate(895,763)" d="m0 0h29l-4 5-8 6h-17z" fill="#F9DC79"/>
<path transform="translate(1179,770)" d="m0 0h7l9 3-1 3v10l-13 4-2-2z" fill="#828F9F"/>
<path transform="translate(559,459)" d="m0 0 3 1 2 12-6 10-5 11h-2l-2-7h-2l1-5 8-16z" fill="#DEC5B3"/>
<path transform="translate(470,864)" d="m0 0h1l2 6 8 5 13 5v2h-19l-14-1 2-5 6-11z" fill="#4E5B6B"/>
<path transform="translate(684,908)" d="m0 0h22v1l-10 1 1 1v11 4 1h-13z" fill="#E5DAC9"/>
<path transform="translate(1037,407)" d="m0 0 5 2-1 5-13 24-3 5-6-2 8-16 9-17z" fill="#AB0432"/>
<path transform="translate(919,1122)" d="m0 0h17l-1 16-15-1-1-3z" fill="#F6F2E6"/>
<path transform="translate(718,185)" d="m0 0 4 1 10 8 14 12 3 3-1 12-4 10-6 12-2 3h-2l2-8 6-14 2-8v-6l-11-11-13-10z" fill="#D75226"/>
<path transform="translate(973,348)" d="m0 0h2l6 11v2l-2 1v13l2 12 2 9-3-4-9-17 1-25z" fill="#4F5C6B"/>
<path transform="translate(522,531)" d="m0 0 3 4 2 7-12 22-1 2h-2l-1-6h-2l1-5z" fill="#99A6B5"/>
<path transform="translate(809,712)" d="m0 0h5v17h-22l4-1v-11l15-1v-2z" fill="#623D1E"/>
<path transform="translate(447,1080)" d="m0 0h52l4 10 14 48h-3l-2-2-10-35-5-17v-3h-50z" fill="#6E4A29"/>
<path transform="translate(379,663)" d="m0 0h1l1 34-9 2v-30z" fill="#828F9F"/>
<path transform="translate(757,1100)" d="m0 0h5l1 1v37l-1 1h-5z" fill="#BF0332"/>
<path transform="translate(960,1100)" d="m0 0h5v39h-5l-1-1v-37z" fill="#E10935"/>
<path transform="translate(1254,965)" d="m0 0h1l7 46v7h-27v-1l15-1 7-2-3-24-2-14z" fill="#E2E3E4"/>
<path transform="translate(1016,415)" d="m0 0 1 2-6 10-10 5-8 7-6 2 2-6 6-10z" fill="#C30231"/>
<path transform="translate(441,531)" d="m0 0 3 1 4 6v5l-1 3-11 6-4-1 2-2-1-5-4-5 3-3z" fill="#8A939F"/>
<path transform="translate(1066,355)" d="m0 0h3l1 11-11 20-3 1-5-2 2-6 12-21z" fill="#CDD2D7"/>
<path transform="translate(1010,454)" d="m0 0 4 1 2 1-1 5-13 24-4 1-3-2 2-6 10-19z" fill="#AB0432"/>
<path transform="translate(782,760)" d="m0 0h73l6 2-3 1h-66l19 1v1l-29 1z" fill="#EB8E18"/>
<path transform="translate(1178,532)" d="m0 0 13 6v2l-5 4-1 7-6-1-6-3-2-4 1-7 3-3z" fill="#8A939F"/>
<path transform="translate(671,963)" d="m0 0 4 1 4 5 1 2v34l-3 6-5 5-4-1h2l2-5 4-7 1-26h-6z" fill="#F9F8F7"/>
<path transform="translate(1178,771)" d="m0 0 2 1v16l1 3-8 7-3-1-1-2-1-12-2 1 2-4 5-6z" fill="#909CAA"/>
<path transform="translate(1088,439)" d="m0 0v3l-12 24-1 3-3-1-4-8 1-5 6-7z" fill="#F3B70A"/>
<path transform="translate(861,315)" d="m0 0h5l1 3-4 8h-15l-12-6-1-2 17-1z" fill="#EB9D0C"/>
<path transform="translate(719,808)" d="m0 0 2 3 4 24v5h-12l1-9 3-16z" fill="#232120"/>
<path transform="translate(1039,338)" d="m0 0 5 2 3 3v9l-3 5-5 4h-6l-3-3 6-8 2-11z" fill="#EDA508"/>
<path transform="translate(1062,467)" d="m0 0h2l5 10-1 6-6 12-3-4-4-7 1-6z" fill="#D4C1B4"/>
<path transform="translate(1225,940)" d="m0 0h1l4 30v8h-10l2-22 2-15z" fill="#282828"/>
<path transform="translate(440,772)" d="m0 0 4 1 7 7-1 16-3 3-8-7z" fill="#919DAB"/>
<path transform="translate(470,772)" d="m0 0h14l-4 1v31l-1 6h-1l-7-28 4 2-5-8z" fill="#748190"/>
<path transform="translate(1234,658)" d="m0 0 5 4v34h-5l-1-2v-35z" fill="#8C95A0"/>
<path transform="translate(735,315)" d="m0 0h7l7 2 16 2-4 4-7 3h-15l-4-8z" fill="#EB9D0C"/>
<path transform="translate(1025,743)" d="m0 0h96v1l-60 1 1 2h-40z" fill="#95A1B0"/>
<path transform="translate(776,710)" d="m0 0h19l11 1 6 2v4h-17l-20-1v-5z" fill="#966E47"/>
<path transform="translate(982,566)" d="m0 0 12 3 1 2-6 11-11-1-3-1 1-5z" fill="#ED2549"/>
<path transform="translate(1130,400)" d="m0 0 12 2 2 2-6 11-13-1-2-1 2-5z" fill="#D60230"/>
<path transform="translate(461,810)" d="m0 0h3l1 9v24l-2 10h-2l-2-12v-18z" fill="#A6B3BF"/>
<path transform="translate(713,705)" d="m0 0h11v14l-1 4h-11v-9z" fill="#6F4B2A"/>
<path transform="translate(789 1e3)" d="m0 0h16v17h-49v-1l13-2h32v-12l-12-1z" fill="#F5F6F5"/>
<path transform="translate(485,829)" d="m0 0h1l2 23 3 16 3 8v4l-5-1-6-3z" fill="#909CAB"/>
<path transform="translate(517,771)" d="m0 0m-2 1 2 1-4 4 1 18-9 8-1-2 2-7-5 3-2 1 1-6 7-12z" fill="#697583"/>
<path transform="translate(508,559)" d="m0 0 3 1 2 8-11 20-2 1-3-5 1-6z" fill="#8F9BA9"/>
<path transform="translate(631,819)" d="m0 0h2l2 6v25l-2 13-1 5h-2v-47z" fill="#A1AEBA"/>
<path transform="translate(667,581)" d="m0 0h1l1 14v15l-4 19h-1l-1-8-3-4 1-9 5-21z" fill="#623D1E"/>
<path transform="translate(990,762)" d="m0 0h1v8l-8 16-12 26-5 10-2-2 1-5 19-40z" fill="#F1E6D7"/>
<path transform="translate(545,747)" d="m0 0h58l2 3h-67l-5-1v-1z" fill="#DBDEDE"/>
<path transform="translate(1135,772)" d="m0 0h13l1 3-6 10h2l1-3 2 1-6 21h-2l-1-2v-29z" fill="#73808E"/>
<path transform="translate(1091,347)" d="m0 0h9l7 3 4 5 1 3-2 2-4-6v-2l-3 1-9 16-2 1z" fill="#929EAB"/>
<path transform="translate(870,978)" d="m0 0 2 1 9 36v3h-27v-1l16-1 1-1h5l-4-15-3-12v-7z" fill="#E0E2E3"/>
<path transform="translate(1181,1080)" d="m0 0 4 1-9 29-8 27-1 4-4 2 2-9z" fill="#6E4A29"/>
<path transform="translate(1174,687)" d="m0 0 8 1 7 3 27 9 1 3-1 2-6-1-8-3-11-4-16-6z" fill="#EFEEEB"/>
<path transform="translate(767,271)" d="m0 0 3 4 3 7v3h2l1-2 4 11 1 6v14l-5-1-2-18h-2l-4-17-2-6z" fill="#EDA508"/>
<path transform="translate(1184,902)" d="m0 0h12v19h-13l3-2v-14l-8-1v-1z" fill="#F0F1F1"/>
<path transform="translate(1312,997)" d="m0 0h7v20h-46v-1l13-2h30v-14h-6l-1-2z" fill="#F6F2E6"/>
<path transform="translate(981,977)" d="m0 0 3 4 8 35v2h-26v-1l16-1 5-1-6-26-1-2v-7z" fill="#E3E4E4"/>
<path transform="translate(1084,796)" d="m0 0h10l3 2v17l-3 3-4-9-5-6-6-2v-2z" fill="#3C4754"/>
<path transform="translate(1124,685)" d="m0 0 9 2 36 12v3l-8-1-11-4-13-4-16-5z" fill="#687482"/>
<path transform="translate(606,394)" d="m0 0 2 1v6l-12 22-3 6-3-4-2 1 2-5 10-19 3-6z" fill="#8A94A0"/>
<path transform="translate(1044 1e3)" d="m0 0h9v17h-48v-1l13-2h32v-11h-5z" fill="#F6F2E6"/>
<path transform="translate(491,685)" d="m0 0 5 1v3l-32 10-9 3h-5v-3z" fill="#677381"/>
<path transform="translate(1089,341)" d="m0 0 2 4 5 1v1h-5l1 3 1 21-5 8-2-2v-24z" fill="#89929E"/>
<path transform="translate(1022,747)" d="m0 0h52l12 1-4 2h-62z" fill="#D9DCDD"/>
<path transform="translate(1201,710)" d="m0 0 9 2 47 15-3 2-10-2-45-14 2-1z" fill="#3B4653"/>
<path transform="translate(787,774)" d="m0 0 1 3 5-1h10l2 3-14 12-4 2z" fill="#F5BB05"/>
<path transform="translate(525,796)" d="m0 0h9l6 4-4 2-5 3-6 12-3-4-1-15z" fill="#3C4754"/>
<path transform="translate(1107,778)" d="m0 0 4 1 8 13v5l-6-3 1 8-8-6-1-2 1-14z" fill="#6A7684"/>
<path transform="translate(1131,774)" d="m0 0 3 1-1 35-2-1-3-17-5-11 2-4z" fill="#8B97A5"/>
<path transform="translate(613,1192)" d="m0 0h32l-2 3-1 7h-1v-9h-3v2h-2v-2h-2l-1 9-7-1-12-5z" fill="#EB9117"/>
<path transform="translate(415,710)" d="m0 0h3l1 3-48 15-6 1v-3z" fill="#3C4653"/>
<path transform="translate(905,1089)" d="m0 0h22l6 3 2 2-1 3-2-1-29-2-3-2 1-2z" fill="#F9F4F1"/>
<path transform="translate(1377,1011)" d="m0 0 2 1-2 5-3 1h-37l-3-1v-2l2-1 37-1z" fill="#E9E3D8"/>
<path transform="translate(420,1012)" d="m0 0h2l-1 5-3 1h-38l-3-3 3-1 37-1z" fill="#E9E3D8"/>
<path transform="translate(989,1090)" d="m0 0h1l1 53 2-1h9l3 1v5l1 2h-16l-1-1z" fill="#EBD8C4"/>
<path transform="translate(956,291)" d="m0 0h4l8 14v2l4 1-7 1h-3l-5-10v-2l-6 2h-5l-1-5z" fill="#99A6B4"/>
<path transform="translate(1140,379)" d="m0 0h7l4 2-1 8-2 4-13-1 3-9z" fill="#D50230"/>
<path transform="translate(756,298)" d="m0 0h3l-1 8-6 5-9-1-4-4 1-5h12z" fill="#613C1D"/>
<path transform="translate(638,684)" d="m0 0h7l-2 4-5 6-3 9-1 15-2-1-2-8v-9l3-12z" fill="#E9E5DB"/>
<path transform="translate(1124,616)" d="m0 0h6l1 4-6 7-11 7-5 1 7-12 4-5z" fill="#F1F0EF"/>
<path transform="translate(791,391)" d="m0 0h20l2 2-7 1-3 4v23l-3 3-2-3v-23l-3-4-7-1z" fill="#1F1F1F"/>
<path transform="translate(1114,387)" d="m0 0h2l1 16-6 10h-2l-3-8 1-6 5-11z" fill="#9CA9B8"/>
<path transform="translate(614,730)" d="m0 0 8 6 10 7 10 5v2l-7-1-11-4-11-7-2-4h2z" fill="#E8DCCA"/>
<path transform="translate(1073,547)" d="m0 0 4 2-1 7 3 1-12 4-7 4v-9l2-5 5 1z" fill="#EDE1CD"/>
<path transform="translate(1203,364)" d="m0 0 6 1 8 7 5 5v2l3 1-2 1-21-7z" fill="#F6EDCE"/>
<path transform="translate(792,558)" d="m0 0h19l1 6-14 4h-18v-1l15-1z" fill="#DEC5B2"/>
<path transform="translate(987,320)" d="m0 0h5l6 3-2 1v2l5 2 2 1-1 5-5 1-12-6 1-7z" fill="#677381"/>
<path transform="translate(859,299)" d="m0 0 4 1-2 7-5 4-9-1-4-4 1-5h12z" fill="#613C1D"/>
<path transform="translate(805,684)" d="m0 0 4 5 7 9-1 9-5-1-7-9 1-11z" fill="#613C1D"/>
<path transform="translate(693,776)" d="m0 0 1 3h11v3l-11 13-5 5 2-14z" fill="#F5BB05"/>
<path transform="translate(477,620)" d="m0 0 4 2 1 4-11 20-2 1-3-3 1-5z" fill="#73808F"/>
<path transform="translate(794,338)" d="m0 0h13l15 2 7 2v1h-58l3-2 10-2z" fill="#CDD0D4"/>
<path transform="translate(669,1012)" d="m0 0 2 1-1 4-3 1h-38l1-3 8-1 28-1z" fill="#E9E3D8"/>
<path transform="translate(1150,584)" d="m0 0 4 2v4l-1 15v19l-3-3-2-4 1-8v-9l-2-10z" fill="#EBE8DF"/>
<path transform="translate(1165,346)" d="m0 0 6 1 32 11 2 1 2 5-10-3-22-8v-2l-6-1-6-2z" fill="#EEA707"/>
<path transform="translate(1036,701)" d="m0 0 2 1-14 16-8 7-2-4-2-5 14-8z" fill="#D86126"/>
<path transform="translate(785,399)" d="m0 0h2v17l2 10 4 6 2 1-1 3-6-1-4-5-1-3v-19z" fill="#F32C4E"/>
<path transform="translate(833,1089)" d="m0 0h1v60l15 1-1 5-1 1h-13l-1-5z" fill="#E6133C"/>
<path transform="translate(894,763)" d="m0 0h1v11l3-1h11l3 2-14 11-3 2-1-7z" fill="#F5BB05"/>
<path transform="translate(440,687)" d="m0 0h4l1 3-10 4-14 5-11 4-4 1 2-4 9-3v-2z" fill="#F4F3F0"/>
<path transform="translate(1110,446)" d="m0 0 5 1 12 7-3 2-11 6-3 1z" fill="#F4B705"/>
<path transform="translate(965,281)" d="m0 0 2 1-7 9-11 3h-4l-1 2-1-8z" fill="#4F5C6B"/>
<path transform="translate(821,833)" d="m0 0h7l13 44-1 5h-1l-5-17-5-18-1-7h-7z" fill="#E3DCD6"/>
<path transform="translate(790,368)" d="m0 0 10 2v2l-11 6-4 1h-17l-11-4-3-2 1-3 8 4 4 1h17l8-3z" fill="#E6E3DA"/>
<path transform="translate(734,910)" d="m0 0h12v17h-15v-1l6-1v-13z" fill="#FDFDFD"/>
<path transform="translate(1194,772)" d="m0 0 6 2 5 3-1 13-9-3-2-2v-9z" fill="#748190"/>
<path transform="translate(1056,866)" d="m0 0 2 3 6 12 3 5-2 1h-9l-3-8v-7l1-5z" fill="#97A4B2"/>
<path transform="translate(1190,795)" d="m0 0 8 1 3 3-1 2-1 12-2 3-4-10-6-5-3-1 1-3z" fill="#3C4754"/>
<path transform="translate(1142,624)" d="m0 0 3 1 9 19v2l-5 2-10-18 2-4z" fill="#6F7C8A"/>
<path transform="translate(717,680)" d="m0 0h6l1 1-1 14-2 5h-6l1-17z" fill="#F1F0EF"/>
<path transform="translate(423,772)" d="m0 0 2 1 1 2v10l-5 3-5 1-1-1v-10l4-4z" fill="#748190"/>
<path transform="translate(882,522)" d="m0 0 4 2 3 4v6l-6 11h-4l1-12z" fill="#221E1B"/>
<path transform="translate(614,1142)" d="m0 0 4 5 6 2 14 1-1 5-2 1h-13l-6-4-2-3z" fill="#DE0330"/>
<path transform="translate(935,1143)" d="m0 0h1l-1 9-6 4h-15l-1-6 14-1 6-3z" fill="#AD0633"/>
<path transform="translate(563,862)" d="m0 0 2 3 2 7-2 10-2 3h-10l8-16z" fill="#97A4B3"/>
<path transform="translate(1151,655)" d="m0 0h2l11 20-2 5-2 2-11-21z" fill="#4E5B6B"/>
<path transform="translate(982,1142)" d="m0 0h1v7l-5 6-3 1h-13l-2-1v-5l13-1 7-3z" fill="#AC0633"/>
<path transform="translate(466,655)" d="m0 0 3 1 1 4-11 21-3-1-1-6 9-16z" fill="#4E5B6B"/>
<path transform="translate(724,630)" d="m0 0 12 2 14 2-3 3-8 2h-14z" fill="#DCC4B2"/>
<path transform="translate(666,319)" d="m0 0h1l1 11v25l-2 5-2-3-1-17 2-19z" fill="#D85826"/>
<path transform="translate(1076,1122)" d="m0 0h1l-1 7-5 4h-17v-6l16-1z" fill="#AC0432"/>
<path transform="translate(1126,638)" d="m0 0 2 1-1 1-1 19-2 3-9-17 4-3z" fill="#3C4754"/>
<path transform="translate(1139,874)" d="m0 0h3v9h17v1l-32 1-2-2v-3z" fill="#3D4855"/>
<path transform="translate(667,409)" d="m0 0h3l2 4 1 15 2 3-6 5h-2l-1-25z" fill="#FCFCFC"/>
<path transform="translate(788,393)" d="m0 0h7l3 3-1 3-9 1-3-1-2 18h-1l-1 8h-1v-12l2-11 1-2-3-1 5-5z" fill="#AC0432"/>
<path transform="translate(424,795)" d="m0 0 8 1 3 2v2l-7 3-6 12h-1l-2-18z" fill="#3C4754"/>
<path transform="translate(915,688)" d="m0 0 7 1 18 4-2 2-11 2h-13z" fill="#633F1F"/>
<path transform="translate(487,600)" d="m0 0 4 4 1 3-9 16-2 1-3-3 1-5z" fill="#818E9E"/>
<path transform="translate(1111,358)" d="m0 0 3 3 4 6v9l-6 14-2 1-1-6-1-2 4-9v-10z" fill="#F5F5F5"/>
<path transform="translate(467,502)" d="m0 0 2 4-1 3-20 10-1-2 2-6 15-8z" fill="#EFE2CE"/>
<path transform="translate(1044,326)" d="m0 0 7 1 5 5v6l-4 7h-1l-2-11-4-2-7 1 2-4z" fill="#AD0432"/>
<path transform="translate(1132,844)" d="m0 0h1v33l-6 3h-2l1-7 2-6z" fill="#909CAA"/>
<path transform="translate(949,410)" d="m0 0h3l1 7-1 17-2 2-6-5 2-3 1-15z" fill="#FCFCFC"/>
<path transform="translate(796,910)" d="m0 0h9v18l-10-1 2-2v-12z" fill="#F7F7F7"/>
<path transform="translate(486,775)" d="m0 0 5 1 5 3-2 5-5 13-2 1-1-3z" fill="#919DAB"/>
<path transform="translate(1231,446)" d="m0 0 1 4-9 15-12 16-5 5-5 1-2-2 11-8 8-10 9-15z" fill="#BB0331"/>
<path transform="translate(478,850)" d="m0 0h1l1 5v18h-4l-5-4 1-7 4-6z" fill="#758291"/>
<path transform="translate(844,253)" d="m0 0 4 1-1 1 6 2-4 2-10 2-3 2-9 2 3-6 5-5z" fill="#F5EBCC"/>
<path transform="translate(653,302)" d="m0 0 1 2-4 17-6 12h-2l1-5-4 2 2-5 8-16z" fill="#9CA8B5"/>
<path transform="translate(753,253)" d="m0 0 12 1 6 5 3 6-9-2-5-3-13-2 3-2 4-1z" fill="#F4EACF"/>
<path transform="translate(1140,813)" d="m0 0 2 1 1 8v20l-1 9h-2l-2-10v-18z" fill="#404B59"/>
<path transform="translate(663,735)" d="m0 0h2l4 12-2 12-1 5-3-3-1-4v-17z" fill="#623D1E"/>
<path transform="translate(633,1100)" d="m0 0h6v9h10l-1 4-3 1-1 5-5-5-6-7z" fill="#B90933"/>
<path transform="translate(345,1012)" d="m0 0 2 1-2 4h-47v-1l16-2 29-1z" fill="#F5F1E6"/>
<path transform="translate(484,774)" d="m0 0 4 1h-2l1 20 2 2-1 6-1 21-3-1z" fill="#8C95A0"/>
<path transform="translate(891,760)" d="m0 0h39v2h-4l-1 3-2-1-31-1v5h-1z" fill="#EA8A19"/>
<path transform="translate(1224,756)" d="m0 0h10v8l-2-2-1 7v5l-2-2-2-10-6 2h-6l6-7z" fill="#F1EADD"/>
<path transform="translate(920,163)" d="m0 0 2 1v8l-11 9-4 3-1-7 9-9z" fill="#DA6027"/>
<path transform="translate(719,799)" d="m0 0h1l7 38-1 3-2-5-4-24-1-1-6 30h-2l5-29z" fill="#DBCFC3"/>
<path transform="translate(975,519)" d="m0 0 2 3 1 6-7 12-6-3 7-14z" fill="#D40230"/>
<path transform="translate(967,312)" d="m0 0h5l2 3-1 6-4 4-4 1-3-4 1-6z" fill="#1F1C1A"/>
<path transform="translate(1140,854)" d="m0 0h2l6 10-1 6-7 4-1-1v-17z" fill="#758291"/>
<path transform="translate(626,778)" d="m0 0 16 1 4 8h-10l-5-1-5-6z" fill="#E5D9CA"/>
<path transform="translate(1e3 579)" d="m0 0 11 3 2 3-6 12h-2l-4-11z" fill="#DEC6B3"/>
<path transform="translate(1051,907)" d="m0 0h2v18h-9l2-1v-15l-4-1z" fill="#FCFCFC"/>
<path transform="translate(1062,317)" d="m0 0 16 2 16 4 10 6 4 4-1 2-17-9-20-6-8-2z" fill="#B80331"/>
<path transform="translate(1040,767)" d="m0 0h7l5 3 1 6-1 2h-2l-1-3h-5l-5 4-1-3v-8z" fill="#6A7684"/>
<path transform="translate(934,321)" d="m0 0 2 3 1 8v22l-1 6-3-4v-21z" fill="#D85726"/>
<path transform="translate(572,767)" d="m0 0h7l2 1v9l-2 2-5-4-5 1-3 1v-5z" fill="#6B7785"/>
<path transform="translate(500,747)" d="m0 0 7 2v1h-55l-4-2z" fill="#8E97A3"/>
<path transform="translate(973,666)" d="m0 0 9 1 3 2-5 3-7 7-1 5-2-4-1-5 7-4-5 2h-3l-1-5z" fill="#505D6C"/>
<path transform="translate(1117,747)" d="m0 0 54 1-4 2h-55l1-2z" fill="#8E97A3"/>
<path transform="translate(1076,766)" d="m0 0h7v22l-6-1v-19z" fill="#8B94A0"/>
<path transform="translate(1054,511)" d="m0 0 4 1 3 5v10l-5 5-3 1 1-7z" fill="#F1F2F2"/>
<path transform="translate(1155,505)" d="m0 0 5 1 11 6 1 5v2l-6-2-11-6z" fill="#E8DCCA"/>
<path transform="translate(928,403)" d="m0 0 1 2-3 21-1 1h-6l2-10 3-9h2l1-4z" fill="#5E6A79"/>
<path transform="translate(779,1144)" d="m0 0h1v6l-4 5-4 3h-5l-2-2v-6l9-2z" fill="#AD0432"/>
<path transform="translate(536,766)" d="m0 0h6v21l-6 1z" fill="#8C95A0"/>
<path transform="translate(739,1142)" d="m0 0 4 5 6 2 8 1-1 5-1 1h-8l-5-3-3-4z" fill="#DE0331"/>
<path transform="translate(385,756)" d="m0 0h9l9 4 1 4-10-1-3-1-1 5-3-6-2 1z" fill="#F2EBDE"/>
<path transform="translate(1041,697)" d="m0 0h2l-2 5-9 14-5 7h-2l-1-6 11-12 4-6h2z" fill="#E9DDCA"/>
<path transform="translate(845,570)" d="m0 0h2l2 4v14l-2 10-2 1-1-9v-15z" fill="#F6F6F7"/>
<path transform="translate(1094,868)" d="m0 0 3 3 1 11-5 3h-8l-1-2 5-5z" fill="#3C4754"/>
<path transform="translate(786,1149)" d="m0 0 17 1v5l-1 1h-16z" fill="#DF0431"/>
<path transform="translate(757,1100)" d="m0 0h5l1 1v37h-1l-1-17-1-4v-7l-3 1z" fill="#D2113B"/>
<path transform="translate(790,953)" d="m0 0h13v17h-14v-1h8v-15h-7z" fill="#FBFBF9"/>
<path transform="translate(675,1149)" d="m0 0h9l7 1v6h-16z" fill="#DF0532"/>
<path transform="translate(821,780)" d="m0 0h13l2 2v7l-2-1-13-1z" fill="#F2E7D8"/>
<path transform="translate(1009,840)" d="m0 0h2l1 23-3-3-7-15v-2l6-1z" fill="#8A96A4"/>
<path transform="translate(478,815)" d="m0 0 2 2 1 9v13l-2 9-2-1v-29z" fill="#3F4B58"/>
<path transform="translate(357,581)" d="m0 0h2v5l2 2-12 4-1 1h-6l2-5z" fill="#717E8D"/>
<path transform="translate(1028,424)" d="m0 0 2 3 1 5-6 11-6-2 8-16z" fill="#D50230"/>
<path transform="translate(979,361)" d="m0 0 4 2 3 6-1 3-2 1-1 13-2-2-2-9v-13z" fill="#A5B3BE"/>
<path transform="translate(435,770)" d="m0 0 6 1-1 18-2 2-4-2v-18z" fill="#8B95A0"/>
<path transform="translate(1054,1100)" d="m0 0h6v16l-1 1h-5z" fill="#DF0532"/>
<path transform="translate(404,565)" d="m0 0 3 1-24 12-4-1 2-5z" fill="#8E9AA8"/>
<path transform="translate(1030,526)" d="m0 0 10 6 8 3-3 2h-8l-9-3-1-3z" fill="#D7C1B0"/>
<path transform="translate(843,283)" d="m0 0h7l2 2v5l-3 3h-6l-3-3v-5z" fill="#EFF0F1"/>
<path transform="translate(1179,770)" d="m0 0h7l1 2h-3l1 16-4 2-2-2z" fill="#8B94A0"/>
<path transform="translate(769,1014)" d="m0 0h32v1l-11 2h-34v-1z" fill="#F6F2E6"/>
<path transform="translate(1260,581)" d="m0 0 5 2 11 6 2 5-7-1-9-4-2-3z" fill="#717E8D"/>
<path transform="translate(1214,566)" d="m0 0 11 2 13 4 2 6-6-1-19-9z" fill="#8E9AA8"/>
<path transform="translate(485,829)" d="m0 0h1l2 27-1 1-1 20-3-1z" fill="#8D97A3"/>
<path transform="translate(1e3 468)" d="m0 0 2 4 1 5-5 9-5-1-1-3z" fill="#D50230"/>
<path transform="translate(741,281)" d="m0 0 6 1 2 2-1 6-2 1h-7l-2-2v-5z" fill="#F3F2F2"/>
<path transform="translate(1041,318)" d="m0 0h8l10 4 8 7 4 8-1 4-2-1-3-7-7-8-10-4-10-1z" fill="#B7BCC1"/>
<path transform="translate(895,448)" d="m0 0 1 2-12 23-1-4-1-7 12-13z" fill="#EBEBEB"/>
<path transform="translate(919,1116)" d="m0 0h17v6h-10l-7-1z" fill="#B00332"/>
<path transform="translate(804,1100)" d="m0 0h6v15l-1 1h-5z" fill="#C20332"/>
<path transform="translate(1007,1100)" d="m0 0h5l1 1v14l-1 1h-5z" fill="#E20B36"/>
<path transform="translate(637,361)" d="m0 0h3l1 2v13l-3 9h-1l-1-14-2-1 1-6z" fill="#A2AFBB"/>
<path transform="translate(1312,997)" d="m0 0h7v20h-14v-1l11-1v-15h-6l-1-2z" fill="#FBFAF8"/>
<path transform="translate(524,868)" d="m0 0 2 3 4 8 4 5h-10l-2-2v-10z" fill="#3C4754"/>
<path transform="translate(977,793)" d="m0 0 1 4-12 25-2-2 1-5 10-21z" fill="#E9E1D4"/>
<path transform="translate(978,315)" d="m0 0 3 4 2-2 1 1v7l-3 5-4 1 1-4-6 2 2-4 2-3z" fill="#AC0432"/>
<path transform="translate(299,570)" d="m0 0h5v3h2l-1 9-6 3-1-1v-13z" fill="#E8851B"/>
<path transform="translate(1018,359)" d="m0 0 9 3-1 10h-4l-5-6z" fill="#EB8918"/>
<path transform="translate(1132,830)" d="m0 0h1l1 9h1l1 37-3 1-1-33z" fill="#8B94A0"/>
<path transform="translate(479,762)" d="m0 0h8l1 1 15 1 2 4-3 3-8-4-9-2-12-1v-1z" fill="#D2BEAF"/>
<path transform="translate(1e3 328)" d="m0 0 6 1 17 8 1 4-5-1-17-8z" fill="#CAC9C9"/>
<path transform="translate(1016,1150)" d="m0 0h14l1 6h-13l-2-1z" fill="#AC0432"/>
<path transform="translate(1197,857)" d="m0 0 2 3 1 9 1 2-7 3-6-1 6-8z" fill="#3C4754"/>
<path transform="translate(796,711)" d="m0 0h10l6 2v4h-17z" fill="#8C653E"/>
<path transform="translate(1143,842)" d="m0 0h2l3 15 2 8-4-2-5-9v-7z" fill="#4C5969"/>
<path transform="translate(637,794)" d="m0 0h16l4 5-14-1v3l-4-1z" fill="#D8C1B1"/>
<path transform="translate(806,393)" d="m0 0h7l8 4-1 3-5-1h-11v-4z" fill="#AC0432"/>
<path transform="translate(1044 1e3)" d="m0 0h9v17h-14v-1l11-1v-12h-5z" fill="#FBFAF8"/>
<path transform="translate(1049,951)" d="m0 0h2v18h-11v-1h6v-16z" fill="#FDFDFD"/>
<path transform="translate(1114,871)" d="m0 0 1 2-3 8 5-5 2-1v5l-3 5h-12l6-8z" fill="#6B7786"/>
<path transform="translate(930,831)" d="m0 0 2 1 10 24v2l-4-1-5-13-3-6z" fill="#F1EBE5"/>
<path transform="translate(835,318)" d="m0 0h18l-3 7-7-1-8-5z" fill="#EC9116"/>
<path transform="translate(814,1150)" d="m0 0h13l2 6h-13l-2-2z" fill="#AC0432"/>
<path transform="translate(874,819)" d="m0 0h1v8l-6 8-4 1-2-6 8-6z" fill="#ECE5D9"/>
<path transform="translate(1095,825)" d="m0 0h2l1 7v21l-2 14-3-2 2-9z" fill="#2C2F33"/>
<path transform="translate(1057,476)" d="m0 0 4 5 2 4v3l2 1-3 6-3-4-4-7 1-6z" fill="#7F8C9B"/>
<path transform="translate(333,734)" d="m0 0 3 1-1 2h-2l1 3-12 4h-3l1-5z" fill="#4B5767"/>
<path transform="translate(834,1089)" d="m0 0h33v10l-2-1v-6l-30-1-1 3z" fill="#F3E7DE"/>
<path transform="translate(478,875)" d="m0 0 6 1 10 4v2h-19l2-2z" fill="#3D4855"/>
<path transform="translate(421,858)" d="m0 0 2 3 5 9 3 3-7 1-4-2-1-3z" fill="#3C4754"/>
<path transform="translate(1103,758)" d="m0 0h19v1h-5l-1 5-1 2-5-1-7-6z" fill="#F7F7F7"/>
<path transform="translate(630,1125)" d="m0 0 4 2 4 5-3 7h-5z" fill="#E00733"/>
<path transform="translate(590,869)" d="m0 0 2 4v11l3 2-11-1 3-9z" fill="#748190"/>
<path transform="translate(587,654)" d="m0 0h4l1 4-11 4h-6l-1-4z" fill="#95A2B0"/>
<path transform="translate(697,1149)" d="m0 0 13 1v5l-1 1h-11l-1-1z" fill="#C40332"/>
<path transform="translate(618,558)" d="m0 0 2 1v7l1 5-5 4-1-1-1-8-2-1 1-3 4-2z" fill="#E47922"/>
<path transform="translate(980,509)" d="m0 0h2l2 5-1 5-4 7-3-4-1-4z" fill="#BD0332"/>
<path transform="translate(645,1114)" d="m0 0h16l-1 5-1 2-14-3z" fill="#F1E6D7"/>
<path transform="translate(711,726)" d="m0 0h12l1 1v6l-13-2z" fill="#DFE1E3"/>
<path transform="translate(1232,379)" d="m0 0 5 5 8 15 2 6v13l-2-2-3-16-4-10-6-9z" fill="#A20532"/>
<path transform="translate(1205,360)" d="m0 0 5 2 8 7 7 8 1 3-4-1-7-8-6-5-4-4z" fill="#F3B508"/>
<path transform="translate(792,762)" d="m0 0h29v3l-2 1-8-1-24-1v-1z" fill="#E77C1E"/>
<path transform="translate(571,659)" d="m0 0 5 1 1 3-12 4h-5l-1-4z" fill="#8C98A5"/>
<path transform="translate(1061,1193)" d="m0 0h8l-1 4-22 9-3-1 13-6h3l1-4z" fill="#F3B307"/>
<path transform="translate(855,1100)" d="m0 0h13v6h-11l-2-3z" fill="#AC0432"/>
<path transform="translate(497,758)" d="m0 0h18v2l-9 7-3-2v-6h-6z" fill="#F6F6F6"/>
<path transform="translate(937,442)" d="m0 0 4 5v12l-6 1v-9z" fill="#F9F8F7"/>
<path transform="translate(1017,336)" d="m0 0 11 5-2 5-5-1-6-3-1-2h2z" fill="#99A6B5"/>
<path transform="translate(1316,569)" d="m0 0 4 1v15l-4-2-2-5v-6z" fill="#E8811C"/>
<path transform="translate(809,506)" d="m0 0 7 6 9 7-2 5-4-2-10-14z" fill="#EADECB"/>
<path transform="translate(986,340)" d="m0 0 10 3 2 3-3 3v7l-3-2-6-12z" fill="#F7F6F6"/>
<path transform="translate(749,318)" d="m0 0 16 1-4 4-5 2-5-1z" fill="#EC9017"/>
<path transform="translate(856,1150)" d="m0 0h12v6h-11l-1-1z" fill="#AC0432"/>
<path transform="translate(647,1145)" d="m0 0 4 2-3 1-2 5-4 3h-7l2-2 1-4 7-3z" fill="#C50533"/>
<path transform="translate(1018,1144)" d="m0 0h8l5 1v5h-16l1-4h2z" fill="#EDDECA"/>
<path transform="translate(1042,340)" d="m0 0 4 2 1 1v9l-3 5h-2z" fill="#F4B805"/>
<path transform="translate(1300,700)" d="m0 0h1l2 18-4 1-2-1 1-12z" fill="#F1F0F0"/>
<path transform="translate(914,556)" d="m0 0 10 1 9 1-1 4-3 4-7-1-11-3 1-2 13 3h4l1-3-8-1-8-2z" fill="#DE1C42"/>
<path transform="translate(738,312)" d="m0 0 20 4 10 1-1 3-18-2-10-3z" fill="#EBAB0F"/>
<path transform="translate(1124,763)" d="m0 0h7l2 2-8 2-9 4-4-5h3v-2z" fill="#E4D8C8"/>
<path transform="translate(730,700)" d="m0 0h15v1l-8 1v4h-7v18h-1v-20z" fill="#D3CABE"/>
<path transform="translate(530,493)" d="m0 0h3l-2 6-4 4-4 1-2-5z" fill="#9AA7B5"/>
<path transform="translate(625,741)" d="m0 0 6 1 11 6v2l-7-1-11-4z" fill="#EDE7DB"/>
<path transform="translate(798,735)" d="m0 0h17v4h-17z" fill="#D6D9DD"/>
<path transform="translate(777,694)" d="m0 0h2v11h-4v-7l-14-1v-1z" fill="#D3D5D7"/>
<path transform="translate(724,458)" d="m0 0 5 5 1 4 6 1v6l-5-2-5-4-2-6z" fill="#F6F3EB"/>
<path transform="translate(721,705)" d="m0 0h3v14l-1 4h-4v-12l4-1v-4z" fill="#623D1E"/>
<path transform="translate(855,1124)" d="m0 0h12v5l-1 1h-9z" fill="#AD0432"/>
<path transform="translate(1055,747)" d="m0 0h19l12 1-4 2h-25z" fill="#E6CAB5"/>
<path transform="translate(545,747)" d="m0 0h19l-2 3h-24l-5-1v-1z" fill="#E6CAB5"/>
<path transform="translate(821,833)" d="m0 0h7l2 6v6h-2v-5h-7z" fill="#EEE6DA"/>
<path transform="translate(1151,604)" d="m0 0 2 1v19l-3-3-2-4 1-8z" fill="#EDEAE0"/>
<path transform="translate(1215,471)" d="m0 0h2l-2 5-9 10-5 1-2-2 11-8z" fill="#D00230"/>
<path transform="translate(938,349)" d="m0 0h1v10l-2 11-3-1-2-2v-3l3-3 2-9z" fill="#E8831B"/>
<path transform="translate(860,312)" d="m0 0h3v3l-11 3-17 1-2 1v-3l21-3z" fill="#F1AE08"/>
<path transform="translate(1006,461)" d="m0 0h2l3 5-2 6-3 3-3-7z" fill="#BC0332"/>
<path transform="translate(1033,416)" d="m0 0 3 4-1 5-4 5-3-7 3-6z" fill="#BE0332"/>
<path transform="translate(718,185)" d="m0 0 4 1 10 8 4 3-1 2-5-2-11-9z" fill="#D65827"/>
<path transform="translate(1093,413)" d="m0 0 4 1 1 1v5l-2 2h-5l-1-1v-6z" fill="#351C1E"/>
<path transform="translate(503,870)" d="m0 0 4 4 5 7v2h-11l-1-2v-6l7 6-3-7z" fill="#5E6A78"/>
<path transform="translate(545,626)" d="m0 0 2 4-1 5-3 5-3 2h-3l2-5z" fill="#ECE1CE"/>
<path transform="translate(917,432)" d="m0 0h7v7l-1 1h-7z" fill="#E3DDD3"/>
<path transform="translate(947,382)" d="m0 0h1v17h-3v-2h-2l1-10z" fill="#E3D9C8"/>
<path transform="translate(1203,364)" d="m0 0 6 1-1 10-6-1z" fill="#F0E3C7"/>
<path transform="translate(1026,363)" d="m0 0 6 1-1 11-3 1-3-2z" fill="#EA9B0E"/>
<path transform="translate(1056,374)" d="m0 0 2 1 1 11-3 1-5-2 2-6z" fill="#9EABB6"/>
<path transform="translate(1014,371)" d="m0 0 5 2 15 10-2 1-16-7-2-2z" fill="#C30331"/>
<path transform="translate(717,806)" d="m0 0h3l-3 12-4 22h-2l5-29z" fill="#D1C8BD"/>
<path transform="translate(1010,788)" d="m0 0h1v18l-2-2-3-7 1-7z" fill="#8B97A5"/>
<path transform="translate(878,521)" d="m0 0h2l-1 9-2 6-4 2-1-4z" fill="#2F261D"/>
<path transform="translate(967,312)" d="m0 0h5l2 3-1 6-4 4-4 1-3-4 1-6zm1 1-4 4v6l4 1 4-5-1-5z" fill="#C30331"/>
<path transform="translate(785,698)" d="m0 0h7v8h-7z" fill="#EFF0F0"/>
<path transform="translate(1068,457)" d="m0 0 5 2 4 2-1 5-1 3-3-1-4-8z" fill="#F7F5F2"/>
<path transform="translate(1050,387)" d="m0 0 7 3-2 4-4 2h-7l4-3-1-2z" fill="#B40332"/>
<path transform="translate(835,296)" d="m0 0h1l2 9 3 5v2h2v2h-6l-2-2z" fill="#DBDCDD"/>
<path transform="translate(1161,760)" d="m0 0m-20 1h20v1l-15 2h-13l-1-2z" fill="#D7C0B0"/>
<path transform="translate(973,666)" d="m0 0 7 1v2l-9 4h-3l-1-5z" fill="#93A0AF"/>
<path transform="translate(500,482)" d="m0 0h2l-2 4-13 7-3-1v-2z" fill="#F1E3C0"/>
<path transform="translate(488,797)" d="m0 0 1 3-1 3-1 21-3-1 1-17 1-7z" fill="#87929F"/>
<path transform="translate(643,798)" d="m0 0h8l7 1-1 5-10-2-4-1z" fill="#404C5A"/>
<path transform="translate(626,778)" d="m0 0 16 1 1 4-15-1z" fill="#D1BCAD"/>
<path transform="translate(1054,1127)" d="m0 0h9v6h-9z" fill="#C20332"/>
<path transform="translate(1108,646)" d="m0 0h2l4 8-5-1-9-3v-2z" fill="#CBB8AB"/>
<path transform="translate(1238,572)" d="m0 0 8 1v8l-6-1-2-2 1-1z" fill="#88929E"/>
<path transform="translate(1165,346)" d="m0 0 6 1 12 4-2 3-6-1v-2l-6-1-6-2z" fill="#EB9D0D"/>
<path transform="translate(755,436)" d="m0 0 3 3 5 9h-9z" fill="#F5F0E4"/>
<path transform="translate(781,415)" d="m0 0 2 2 2 13 4 5v2l-5-2-3-5z" fill="#D60230"/>
<path transform="translate(1037,351)" d="m0 0h1l1 10h-6l-3-3 5-6z" fill="#EB9612"/>
<path transform="translate(550,456)" d="m0 0h2l-2 5-4 8h-3l1-10z" fill="#F7F4EA"/>
<path transform="translate(913,1150)" d="m0 0h8l2 6h-9z" fill="#C20332"/>
<path transform="translate(1016,879)" d="m0 0 8 6 2 3h-10z" fill="#D5AD5C"/>
<path transform="translate(656,771)" d="m0 0 6 5-1 9-4-4z" fill="#D7C0B0"/>
<path transform="translate(951,696)" d="m0 0h2l2 9-2 6-2-2-2-4 1-5z" fill="#95693E"/>
<path transform="translate(1110,586)" d="m0 0h4v13h-3l-1-2z" fill="#FDFDFD"/>
<path transform="translate(887,551)" d="m0 0 23 8 2 2-7-1-15-5-3-2z" fill="#ED2045"/>
<path transform="translate(1044,363)" d="m0 0 1 2-6 11h-1l-2-10z" fill="#F1B407"/>
<path transform="translate(649,353)" d="m0 0h1l1 15-3 4-1-4v-8z" fill="#3C4754"/>
<path transform="translate(1031,336)" d="m0 0 2 1 1 8-3 6-5 4h-6l3-2 5-3 3-6z" fill="#AF0432"/>
<path transform="translate(1007,1126)" d="m0 0h2l5 18 2 6v5l2 1h-3l-4-15-2-10h-2z" fill="#CB0A37"/>
<path transform="translate(1041,697)" d="m0 0h2l-2 5-7 11-1-3-2-1 6-7 2-3h2z" fill="#E2D5C9"/>
<path transform="translate(318,703)" d="m0 0h2l1 2 1 13h-5z" fill="#E9EAEA"/>
<path transform="translate(710,582)" d="m0 0h1l1 6h2v11h-1l-1-7-1 22h-1z" fill="#EBD9C4"/>
<path transform="translate(941,583)" d="m0 0 10 2v4l-1 3-4-2-5-5z" fill="#936B44"/>
<path transform="translate(1154,345)" d="m0 0 4 1-1 11h-4v-10z" fill="#EEA906"/>
<path transform="translate(691,1117)" d="m0 0 2 3 1 10-1 2-1 17h-1z" fill="#DC0B36"/>
<path transform="translate(1125,777)" d="m0 0h4v13l-3-3-3-6z" fill="#96A2B1"/>
<path transform="translate(378,572)" d="m0 0 3 1-1 6-4 2h-3v-8z" fill="#8A939F"/>
<path transform="translate(1095,324)" d="m0 0 6 3 7 6-1 2-15-8z" fill="#A80432"/>
<path transform="translate(764,299)" d="m0 0h1v14l-2 1h-6l5-8z" fill="#ECECEC"/>
<path transform="translate(960,1150)" d="m0 0h8l1 6h-7l-2-1z" fill="#C20332"/>
<path transform="translate(799,697)" d="m0 0 8 8v2h-8z" fill="#E1E2E3"/>
<path transform="translate(1059,368)" d="m0 0 2 2 1 11-2 3h-2l-1-12z" fill="#D7C3B5"/>
<path transform="translate(784,339)" d="m0 0h8l-1 3-10 1h-10l3-2z" fill="#D5D4D3"/>
<path transform="translate(996,326)" d="m0 0 5 2 2 1-1 5-5 1-2-1z" fill="#727F8E"/>
<path transform="translate(784,400)" d="m0 0 1 3-2 14h-1l-1 8h-1v-12l2-11z" fill="#B40431"/>
<path transform="translate(1100,397)" d="m0 0 2 2-1 10-3 1-3-2 2-5z" fill="#A0ACB6"/>
<path transform="translate(978,315)" d="m0 0 2 2v8l-6 4h-2l2-4 2-3z" fill="#BF0331"/>
<path transform="translate(489,776)" d="m0 0 5 2 2 1-4 10h-2z" fill="#97A4B3"/>
<path transform="translate(1149,773)" d="m0 0 3 1v6l-6 3-1 2h-2l2-6z" fill="#404C59"/>
<path transform="translate(714,705)" d="m0 0h7l2 1v4h-9z" fill="#946C44"/>
<path transform="translate(792,688)" d="m0 0 5 5v2h-16v-1l7-1z" fill="#CDD1D4"/>
<path transform="translate(914,446)" d="m0 0h8v7l-6-2-2-2z" fill="#CEBBAD"/>
<path transform="translate(844,437)" d="m0 0h1v12l-5-1-1-3z" fill="#F5F1E4"/>
<path transform="translate(951,357)" d="m0 0 3 4 2 4-1 3-4-4-1 9h-1v-8l1-7z" fill="#D9CCBE"/>
<path transform="translate(468,773)" d="m0 0h2l6 12-4-2v-2l-5-2-1-5z" fill="#404C5A"/>
<path transform="translate(1111,377)" d="m0 0 2 2 1 7-3 5h-1l-1-6-1-2z" fill="#EAE8E0"/>
<path transform="translate(1018,334)" d="m0 0 6 1 5 3v3l-5-1-6-3z" fill="#E8E8E6"/>
<path transform="translate(1041,318)" d="m0 0h8l10 4-1 2-10-3-10-1z" fill="#7D8895"/>
<path transform="translate(870,296)" d="m0 0h1l-1 9-4 6-4 1 5-10z" fill="#DDDDDC"/>
<path transform="translate(1072,343)" d="m0 0h5l-1 9-1 3h-2z" fill="#F3F4F5"/>
<path transform="translate(1087,574)" d="m0 0 4 1 4 2 1 4 2 2-6-1-2-1-3-5z" fill="#FCFCFC"/>
<path transform="translate(784,734)" d="m0 0h8l-1 5h-6z" fill="#CCCED0"/>
<path transform="translate(977,793)" d="m0 0 1 4-4 8h-3l1-5 3-6z" fill="#EFE6D8"/>
<path transform="translate(390,767)" d="m0 0h1v26h-1l-1-13-1-4z" fill="#413C3A"/>
<path transform="translate(1036,701)" d="m0 0 2 1-7 8-3 2-1-5z" fill="#D04E27"/>
<path transform="translate(1293,591)" d="m0 0 6 2v4l-2 1h-9v-1l5-1z" fill="#4C5868"/>
<path transform="translate(630,1131)" d="m0 0 4 2 2 4-1 2h-5z" fill="#B20332"/>
<path transform="translate(633,1100)" d="m0 0h6v6h-6z" fill="#E20A35"/>
<path transform="translate(1011,333)" d="m0 0 6 3-1 4-4 1-3-3z" fill="#919EAC"/>
<path transform="translate(1054,1100)" d="m0 0h6v6h-5l-1-1z" fill="#C30432"/>
<path transform="translate(323,591)" d="m0 0h2v5l6 1v1h-9l-3-3z" fill="#4C5868"/>
<path transform="translate(702,277)" d="m0 0 6 1v3l-10 1z" fill="#EDA507"/>
<path transform="translate(1042,327)" d="m0 0h4l-1 5-7 1 2-4z" fill="#D70230"/>
<path transform="translate(651,281)" d="m0 0 9 2-2 8-3-4-2-5z" fill="#535F6E"/>
<path transform="translate(996,324)" d="m0 0 6 1 5 2v3l-2 1-9-5z" fill="#9AA7B4"/>
<path transform="translate(1047,585)" d="m0 0 4 3-2 8h-2l-1-7z" fill="#EB9B0E"/>
<path transform="translate(938,567)" d="m0 0 1 2v5l9 6-2 1-8-5-2-2 1-6z" fill="#BF0331"/>
<path transform="translate(943,507)" d="m0 0 4 5 8 7-2 1-6-4-4-4z" fill="#BD0331"/>
<path transform="translate(1023,339)" d="m0 0 5 2-2 5-5-1z" fill="#A3B1BD"/>
<path transform="translate(473,861)" d="m0 0 2 1v8h-3l-1-1 1-7z" fill="#6D7987"/>
<path transform="translate(930,831)" d="m0 0 2 1 3 7v3l-3 1-2-5z" fill="#E9DDD1"/>
<path transform="translate(1124,763)" d="m0 0h7l2 2-11 2-3-3z" fill="#DCC6B4"/>
<path transform="translate(676,409)" d="m0 0 2 2 1 11-3-1-1-10z" fill="#E9E8E8"/>
<path transform="translate(960,1100)" d="m0 0h5v6h-5z" fill="#C20332"/>
<path transform="translate(913,1100)" d="m0 0h5v6h-5z" fill="#C20332"/>
<path transform="translate(979,785)" d="m0 0h3l-1 6-3 4-2-1z" fill="#E4DCCE"/>
<path transform="translate(470,772)" d="m0 0h5v7l-2 1-3-4z" fill="#687482"/>
<path transform="translate(990,762)" d="m0 0h1v8l-3 4-2-1 3-9z" fill="#E8DEC9"/>
<path transform="translate(917,163)" d="m0 0 2 1-10 6h-2v-3z" fill="#D75727"/>
<path transform="translate(503,870)" d="m0 0 4 4 5 7-1 2-5-1-1-7z" fill="#6D7987"/>
<path transform="translate(943,407)" d="m0 0 1 2-1 9-3 2 1-12z" fill="#E1E2E3"/>
<path transform="translate(860,312)" d="m0 0h3v3l-7 2-4-1 2-2z" fill="#EFB817"/>
<path transform="translate(758,1110)" d="m0 0h2l1 11-2 2-2-4v-8z" fill="#AE0433"/>
<path transform="translate(1007,1100)" d="m0 0h5v6l-5-1z" fill="#C20332"/>
<path transform="translate(932,1116)" d="m0 0h4v6h-10v-1l6-1z" fill="#9B2E3B"/>
<path transform="translate(947,478)" d="m0 0 5 1 3 1-1 5-2 1-1-5-2-1-1 3h-1z" fill="#F5F2F0"/>
<path transform="translate(943,397)" d="m0 0h2l2 7-5 4z" fill="#F5F4F1"/>
<path transform="translate(1029,1121)" d="m0 0h1l-1 7-3 2-1-6z" fill="#AD0833"/>
<path transform="translate(617,1107)" d="m0 0 5 5 1 3-4 1-2-3z" fill="#E20B36"/>
<path transform="translate(1145,861)" d="m0 0 3 3-1 6-2 1-1-8z" fill="#6D7987"/>
<path transform="translate(994,817)" d="m0 0h2v11l-3-3z" fill="#B0853A"/>
<path transform="translate(642,807)" d="m0 0 13 2v2l-10-1z" fill="#4F5B69"/>
<path transform="translate(501,764)" d="m0 0 4 2-2 5-4-2z" fill="#E2D7C7"/>
<path transform="translate(774,733)" d="m0 0h4v6h-5z" fill="#B7BDC4"/>
<path transform="translate(877,521)" d="m0 0 1 2-5 11-3 1 2-5z" fill="#EC1F44"/>
<path transform="translate(971,312)" d="m0 0 3 3-1 6-4 4v-3l2-3-1-6z" fill="#A30532"/>
<path transform="translate(873,243)" d="m0 0 2 1 2 8-4-2-2-5z" fill="#DB6327"/>
<path transform="translate(727,244)" d="m0 0 4 2-5 5-2 1 1-6z" fill="#D85726"/>
</svg>
